/* XPM */
static char *EAST1662694591[] = {
/* columns rows colors chars-per-pixel */
"64 64 244 2 ",
"   c #011D1C",
".  c #00221B",
"X  c #011D25",
"o  c #031F2A",
"O  c #032325",
"+  c #05252B",
"@  c #0A262C",
"#  c #05292D",
"$  c #0A292D",
"%  c #082825",
"&  c #12292F",
"*  c #0B2632",
"=  c #062A31",
"-  c #0B2B32",
";  c #082733",
":  c #122D34",
">  c #122734",
",  c #0D3235",
"<  c #0E343A",
"1  c #0C393C",
"2  c #133335",
"3  c #14343A",
"4  c #143C3D",
"5  c #1A3D3D",
"6  c #193738",
"7  c #0F342E",
"8  c #781A07",
"9  c #772819",
"0  c #7C3825",
"q  c #15413D",
"w  c #18473D",
"e  c #0F443E",
"r  c #22423C",
"t  c #153E42",
"y  c #193E44",
"u  c #1B3E48",
"i  c #153B44",
"p  c #0D3D43",
"a  c #203F41",
"s  c #154144",
"d  c #194145",
"f  c #154549",
"g  c #1B4349",
"h  c #1C4B4C",
"j  c #184B47",
"k  c #1A504C",
"l  c #1B4E50",
"z  c #174F50",
"x  c #1D5454",
"c  c #1D5A56",
"v  c #1D5C5B",
"b  c #17575A",
"n  c #0E4540",
"m  c #214E4C",
"M  c #244845",
"N  c #2B544C",
"B  c #28544A",
"V  c #214D51",
"C  c #215455",
"Z  c #225C56",
"A  c #245659",
"S  c #235E5C",
"D  c #2A5C5D",
"F  c #2C5952",
"G  c #325B53",
"H  c #365754",
"J  c #1F6159",
"K  c #24615D",
"L  c #29645D",
"P  c #286357",
"I  c #3A6757",
"U  c #3A715C",
"Y  c #39694F",
"T  c #1D5E60",
"R  c #245E61",
"E  c #295D62",
"W  c #246262",
"Q  c #2A6463",
"!  c #2C6A68",
"~  c #346E63",
"^  c #396A68",
"/  c #3A7466",
"(  c #3C737B",
")  c #367675",
"_  c #336B6C",
"`  c #42765E",
"'  c #426E5F",
"]  c #466C65",
"[  c #437C6C",
"{  c #487968",
"}  c #537D6D",
"|  c #447A76",
" . c #557B74",
".. c #933712",
"X. c #933723",
"o. c #851B0E",
"O. c #8F4B38",
"+. c #AB5833",
"@. c #A6552B",
"#. c #94471B",
"$. c #B36A4E",
"%. c #B9674A",
"&. c #B56A51",
"*. c #B86B54",
"=. c #BB7A5D",
"-. c #B8765A",
";. c #B37353",
":. c #B57B64",
">. c #B97A64",
",. c #AF7863",
"<. c #B85D4A",
"1. c #C47454",
"2. c #C87660",
"3. c #49826A",
"4. c #548B6C",
"5. c #55886C",
"6. c #5B936E",
"7. c #4A8475",
"8. c #518473",
"9. c #568D74",
"0. c #5B8E74",
"q. c #52897A",
"w. c #568979",
"e. c #569274",
"r. c #5C9375",
"t. c #5D947A",
"y. c #5A9578",
"u. c #638B78",
"i. c #619475",
"p. c #61957C",
"a. c #639A7B",
"s. c #699C7C",
"d. c #649A77",
"f. c #638F6C",
"g. c #6CA37D",
"h. c #67A077",
"j. c #74AB7F",
"k. c #7DB47E",
"l. c #B5826A",
"z. c #BA836C",
"x. c #B28368",
"c. c #B78B70",
"v. c #81B37E",
"b. c #D58C64",
"n. c #D2966C",
"m. c #CEA87E",
"M. c #DAA67E",
"N. c #DAAC7D",
"B. c #D3A87C",
"V. c #DAB27F",
"C. c #E3A679",
"Z. c #E6B17F",
"A. c #D4865F",
"S. c #3D7280",
"D. c #467481",
"F. c #3E8283",
"G. c #478887",
"H. c #548788",
"J. c #5C9586",
"K. c #4C8D92",
"L. c #4E9595",
"P. c #4D9599",
"I. c #4D9A9A",
"U. c #479696",
"Y. c #529A9B",
"T. c #569995",
"R. c #48908F",
"E. c #658D87",
"W. c #689883",
"Q. c #749A92",
"!. c #6DA283",
"~. c #6AA68D",
"^. c #74AA81",
"/. c #76A889",
"(. c #7DB384",
"). c #7EB589",
"_. c #7BB986",
"`. c #76A794",
"'. c #75B599",
"]. c #68AB99",
"[. c #4996A2",
"{. c #78B9A6",
"}. c #6DAEA4",
"|. c #5BA59F",
" X c #78C4AB",
".X c #81AE87",
"XX c #81B585",
"oX c #83B58A",
"OX c #85BA8C",
"+X c #88BB8D",
"@X c #81B885",
"#X c #84B992",
"$X c #88B896",
"%X c #87AF99",
"&X c #95BCAB",
"*X c #8BB4AE",
"=X c #CCAA82",
"-X c #D5A682",
";X c #D4AA83",
":X c #DCAE82",
">X c #DCAA86",
",X c #DCB384",
"<X c #E6B787",
"1X c #E3A982",
"2X c #8DC395",
"3X c #92C49B",
"4X c #94C89A",
"5X c #90C28F",
"6X c #8AC3A8",
"7X c #93C4A4",
"8X c #9BCBA4",
"9X c #97C6AB",
"0X c #87CAB4",
"qX c #9CC6B2",
"wX c #99D4B8",
"eX c #8AD1B5",
"rX c #A1CCAC",
"tX c #A2D1AC",
"yX c #A2DAAB",
"uX c #ADD6BD",
"iX c #AEDABB",
"pX c #A6D5B4",
"aX c #B1DCBD",
"sX c #A2CEB3",
"dX c #B3E1BC",
"fX c #99C6C7",
"gX c #AED9C2",
"hX c #B3DDC2",
"jX c #B8DBC6",
"kX c #B7DEDA",
"lX c #B5E2C4",
"zX c #B9E4C9",
"xX c #BCE7D4",
"cX c #B4F5CD",
"vX c #BBE3E2",
"bX c #C3EDD6",
"nX c #C6F6DA",
"mX c #C1E9CF",
"MX c #CBF7E7",
"NX c #DDFFFC",
"BX c #D9FBF7",
"VX c #CCF4E7",
"CX c #E4FDFD",
"ZX c #EAFEFC",
/* pixels */
"..#.% @ # ; , < 4 s g t - # * * @ $ * $ $ @ $ @ $ @ $ $ @ # @ # $ @ $ $ $ $ $ $ 1 d g d i s 4 = # * - # $ # $ @ $ $ @ @ $ % 9 8 ",
"b.n.: ; 2 i g s s s d t 3 - $ + + $ $ $ $ $ @ $ # $ $ # $ $ * $ @ @ $ $ $ $ @ $ 4 t d s d d s 4 - - # + - * $ $ @ $ # & $ : *.%.",
"N.:XO < s u s s s s d d t 4 , = = # # # $ $ $ $ $ $ $ $ $ $ @ $ @ # $ $ $ + # * d d d d d d s d y g 4 $ $ @ $ $ $ $ # > + # :.>.",
";Xm.= u d y t q s s i d d i i 4 - - - # + $ $ $ @ $ # $ + $ $ # $ @ $ # # # - i s d i s s t i g s u 3 $ @ @ @ $ @ # @ @ # # :.>.",
";X-X4 y t u f s d d d s s s s s d y y , # * $ @ $ # $ $ @ # $ @ $ $ $ # - - 4 d s t d d s d d d s s 4 - $ $ $ + $ $ * & # @ :.=.",
"-X:Xd y M i s s d s y s d s s s s y y - + $ $ $ $ @ @ # @ $ $ $ $ $ + - 4 i y d d d d t d s i s s f d 3 $ + - $ $ # @ * + O :.$.",
"-XN.q s d 3 i d t s t t d d i d s t d < # # $ @ $ $ $ $ $ # $ # $ * + , d d s s d t s d t d d d i d d 4 , # # $ $ - # - # % :.%.",
";Xm.s s 1 M g i t d s t d d i d s t g i - # $ @ $ + $ @ $ @ @ * $ $ # 3 g s i s d s t i d s t d d y s d d 4 * $ & * # # # 7 ,.&.",
";X:Xi u 5 y d d s s d d 4 q d s s t y i , + $ @ @ @ @ @ # $ @ @ @ # # 4 d s d 4 g t d g d t d y g s s s s s i $ & O 4 1 s s :.$.",
":XB.s i q g t i y d y s d s q s s y d d 4 , $ $ % @ @ $ # $ $ $ + - 3 i d i d y d 4 h A h p t d i i s s g d 5 @ o # 6 t s d >.*.",
"+.%.a M q f i g y y y i t s s s s s t d g s , $ $ $ $ $ # = $ $ , i y d s d t y t g x K S z s i g d d d t s 4 @ & # 4 g y 5 O.X.",
"@.%.y y 4 n g g s s g s i t y y s d g i q s t 4 4 - $ $ , t i y i d s t t s t d s C K K W Z x g i t i f n s t @ @ + d g i 4 O.X.",
"N.N.j t w s d 4 s s p f Q E i g h p u g t s s y 4 $ + # , d g d u y t s f k k S v K S S K W Z c g s s C J K x # $ # 4 s y s z.2.",
"m.V.s i d s s q y i z ) T.T.G.K.^ z i i s s s y s - @ # , d s t u 4 s h D W K W W K K D D D S W f s s C W W x # @ + q i g s c.;.",
"M.>Xs u d t s h m l ) P.I.I.I.G.A s t g s s y d t # @ $ 3 d s d y s f x K W K v v K K S Z K S S f t g Z J W C # > O M t s s l.=.",
"m.>Xf f s s f D J ! R.I.U.I.G.v E h g i 4 d y u d * O $ - d t t s A S W W S W S S S K K J W S D g y y A K W C + $ # 5 d y q >.;.",
"B.N.q d q q f R Z G.Y.U.I.K._ A W K V s s s d s 4 - $ + 1 l x A K S S K S S S K S S S v K S Z K s y s c K W c # # + 5 u i M >.$.",
"-XM.y u 4 j A K ) L.I.Y.U._ S S S K S C h s s d t - O + d E S D S K S S K K S S K K K W K K S S s d s x K K x - # # y h t 4 :.$.",
"=X>Xi g V v R _ Y.Y.L.L.F.J c K S W S W A h i d 4 * @ ; s W W S S W K S S K R K S S S S R S R S s u s c K W x $ + = 4 h z 1 :.$.",
"=X;XS A K Q Q G.U.U.I.F.K Z W K K S Z W Q x t 4 , $ & + t K S S K v S K R S S K W S S S S R S R s i s S K W x ; $ + 2 z v Z :.$.",
"b.n.K K J v K.L.U.Y.R.! c K Z K S K W J K l s y , $ @ @ s W J K S S K S S K S S S S K R S R R R s d s c W K x $ $ # 7 x S D -.<.",
"..+.F S J ) I.U.U.R.) v G.G.Z S Z W v K K l s d 3 + @ + s W v S K S W S S K K S S S K S S W K Z s y s c K W x * @ O , S W D 0 8 ",
"b.n.A v ! L.I.U.Y.) v c | H.S S R K S S S x t y < # @ # s K S K S K S S S S K S K W S v Z Z K K h y s x W K x $ @ $ , S v D ;.&.",
"N.:XW Q G.Y.I.I.F.W Z K v S K R S K S L E h t d 4 $ @ # d W K K K S S K W S S S S S v K P K ~ / h d s c K W c - @ # 4 W W K z.-.",
";X:Xc F.U.I.P.G.R S S K S R K K D K W A D V i s d $ @ % s J W T W T K v K K S S W W v K 3.6.0.G g t i S K K A # + * j K K K l.1.",
";XN.J.|.T.L.G.K c c K Z R W c K Z S S x h m s i i $ @ # s Z ! v v R W R W S S S c K W / t.i.p.' 4 t s F ! P C # - + s W L S l.-.",
">XN.eX0X0X}.J./ [ 3.[ P c Q S R W W W x s h s s 4 - $ + q L 3.[ K Q Z W R Q Q P P P / y.y.e.W./ 4 t w | e.U m $ - + f Q A v x.&.",
";X,X0X0XeX'.e.t.J.t.t./ Z S W S R T J K j h t g 4 - * O d 3.y.r.e.7.K S Z [ 9.e.9.0.J.a.r.r.p.U i t q 8.J.e.U % o @ j S R W x.$.",
";X,X XeX'.p.0.u.r.r.r.y.~ Z c c S S J P k h t d q - * + N t.r.6.r.7.Z S Z 3.y.r.i.t.r.r.r.t.p.U t t 4 3.6.h.8.$ @ & w ! W v :.$.",
";X,XeX Xy.r.0.i.6.r.r.p.t.[ [ [ [ [ L K x h i d q - * o F W.r.6.a.q.S R v 7.t.t.r.e.r.r.r.r.p.` t 4 5 8.r.6.} @ + % B T./ v z.%.",
"C.N.6X~.4.d.0.t.r.r.r.r.t.t.t.i.E.W.~ Z h f g i 4 - * o B a.r.t.r.q.R R J 3.W.r.t.t.r.r.r.r.r.e.h d 5 } d.i.} $ - X Y ~./ _ >.2.",
"+.A.~.t.i.6.i.r.t.0.r.r.r.r.r.6.6.t.U c z i i g q - * O N a.y.y.6.7.K J J 3.t.r.y.e.r.t.r.r.r.4.d t t 8.d.3.P - * O Y y.[ H.O.X.",
"+.;.r.6.a.0.r.y.r.r.r.r.r.r.r.0.y.t./ K x t d t y @ @ % G W.r.t.6.q.K S S 3.t.t.r.r.y.t.r.0.a.U i u 4 3.d.{ H - * O Y a.T.K.O.X.",
"C.Z.d.6.4.i.r.t.r.r.t.r.r.r.t.r.r.t.~ v A d y s y @ @ o F 5.r.t.4.7.K Z Z [ r.y.r.r.r.y.r.r.a.U < g d { s.{ ] 5 @ O Y ].}.I.n.2.",
":X,Xe.r.e.i.6.e.t.y.r.t.t.y.r.t.r.w.~ v W s y s 5 $ & o N Y r.t.4.) K K v [ d.t.6.r.r.r.r.r.p.8.m 4 w } i.p.E.r o O I '.|.U.c.,.",
"=X:Xy.e.t.t.d.t.r.0.r.0.r.r.r.r.d.{ _ J S s y s 1 7 o o N I y.t.3.! K L P 3.t.0.r.r.t.e.r.6.0.t.d d d { s.i.B % > O 7.{.|.[.c.-.",
";X<XJ.0.h.e.r.e.r.r.r.r.t.r.r.t.t.[ ! Z S i d s s # $ * r Y u.r.w.~ S S c / t.t.t.t.t.0.d.h.g.g.m t y 8.0.3.q @ $ O w.{.[.[.l.*.",
";X1Xi.5.r.y.r.r.r.t.t.r.r.r.r.r.r.3.K v R h d q d @ $ $ 2 ` s.d.9.L v W K 3.t.r.t.t.t.y.g.@X@X).m i t w.s.5.6 @ @ O q.0XL.P.z.*.",
"m.:Xp.r.e.y.r.r.r.r.r.r.t.r.r.r.t.8.P v W V q s 4 $ @ O F s.(.$X^.~ S W K / 6.d.r.r.e.d.^.@X@Xj.m p q a.OX/.B @ * O 7.wXT.U.z.$.",
"m.N.y.6.e.r.r.u.t.0.t.r.r.r.r.r.t.q.K T K V 5 s u @ - + N !.8X8X).U S W v 7.d.a.r.d.s./.OX_.XX(.m 4 q s.v.5XB X @ X J.cX{.U.:.&.",
"B.<X9.r.r.r.e.J.r.t.6.6.p.t.e.t.W./ J J W C i s 5 = @ + G OX3X4X_.4.T K S | t._.(.(.@X@X(.XXXXj.m t p t.+X).` @ $   p.cX{.U.z.&.",
"n.B.s.g.g.d.i.6.e.y.r.6.0.0.r.r.r./ K W K h y s s - @ O I +XoX(.5X!.S J W / 3.OX(.@X(.XXoXXXXX(.m 4 t Y oX(.W.* & o d.cX XR.,.&.",
"..@.j.@X)._.^./.i.s.g.g.t.t.r.e.d.{ P K W h t s d - @ X ' +XXX(._.g.A K v / 4.)._.XXXXXXk.(.XX(.j M d B d.2X`.; #   W.cX{._ 9 8 ",
"b.C._.k._.(.oXXX).).).^.0.p.!.a.s.t.L J W V 4 s 4 - @ o I +X.XXX(.!.W P Z / 3.j.(.k.@X(.).oXXX(.h 4 d P '.gX'.@ @ X u.xX~.b :.&.",
"M.<X).k.@Xk.oX.XXX).oX^.y.s.#X).+X'./ J Q V i d 5 - $ X I +X(.(.OXg.A K T ~ 9.!.(.oX).(.).(.$XtXF 3 4 ^ hXcX].@ % o Q.nX7.b x.:.",
":XN.(.v.k.+X/.(.k.(.(./.0.a.).).XX2X/ c S h y s d ; @ X I +XoX).XXg.R J J K 3.g.oX(.(.oX(.(.tXuXm y 6 D.NXMX}.& @ X `.MXq.T z.=.",
"m.,X_.@X(.oXoXoXk.oX(.^.0.d.(.XXk.#X{ c Z s y s 5 - @ O ' +X(.XX+X$XR c W K { #XsX3X+X(.#X8XlXuXN i i Q.CXNX*Xo % X %XbXJ.x l.-.",
"-X<X).v.(.(.XX@XXXoX^.g.0.s.XXXXv.#X[ Z K s i s q * @ O ] $X).#XpX7XR J T J 7.pXlXaXpXoX7XlXiXuXV p E fXCXCX&X% @ X E.mXE.x >.&.",
"m.<X7XoX_.v.k.).$XrX#X/.r.!.#X$X8X$X{ v Z s y g i $ $ O } 4X5XgXzX7XS K S P W.hXaXgXrXOX3XlXjXuXN V D.vXCXVX*X+ + X u.bXE.x >.&.",
"-X:XjX$Xj.XX_.3XaXlXqXW.4./.iXiXaXtX[ b W m d t s $ @ X } 4X5XlXzX7XA K S U W.hXhXuX3XXX8XlXjXuXm _ D.vXNXxX{.; O + u.zXW.Z :.&.",
"=X<XgXaX8X.XpXjXaXlXaX!.e.!.lXlXlXdX7.v K h t d 4 - @ X ] 5X+XiXzX6XA K v / !.hXlXuX4X(.8XdXjXuX^ D.( vXCXVX'.+ * X u.nXJ.c l.$.",
">X<XhXtX7X(.yXjXiXaXjX$Xe.a.qXiXaXlXq.b W m t d s $ @ o I OX+XiXlX7XA K c 7.!.aXaXhXpXXX4XqXjXjXH.( ( vXNXNX*X+ @ o u.bXJ.x z.*.",
"+.1.jXrX).XX7XlXhXlXaX9X5.a.sXzXlXlX7.b K m i d d @ @ X ' +XOXsXzX7XR S v [ W.aXhXhXiXXX+X&XmXVXH.D.( vXCXNX*XO : $ 7 /.Q.A O.X.",
"@.1.jXdX).k.yXjXgXgXlX7X5./.zXhXgXlXw.v K h i d t 7 @ X  .4XXXqXzX6XA K S [ !.aXhXhXaXXXoXsXVXBXG.S.( kXZXBX`.@ @ % r &XQ.z O.X.",
"C.<XlXzX7X$XdXjXaXaXzX&X4./.lXhXhXjXq.b W m i s 4 , @ X } 5XOXuXzX&XR K S [ !.aXaXjXaXXX&XbXBXBXH.S.( kXZXMXp.X & O u.nXJ.c z.2.",
"m.<X7XhXrXoX4XhXhXhXlX7Xe.`.qXhXhXlXq.v W m t d t $ $ X } 4X+XlXlX7XR Z K [ !.aXjXhXpXXXqXVXBXBXH.S.) vXZXxXW.% + O u.zXJ.c x.=.",
"-X<X&X.XtX+X$Xf.mXiXzX9Xr.`.`.&XzXzX7.Z S x s y t @ @ o } 4X5XjXlX6Xk v J 3.~.tXqXdXdXXXiXBXCXBXD.D.| fXnXlXW.O > X u.MXJ.j x.=.",
"-X1X*X{ f.Q.lXW.rXjX%XW.] Y ] H %XuXw.s s V d u g @ @ X } 8X3XzXmX&Xj x P / `.9Xu.jX8X&XxX&XBXCXD._ D.E.&XbXW.# >   u.nXE.q :.;.",
"-XB.O   . 6 F u M H @ O O O @ X . M 6 7 - - - 4 4 % @ + ] !./.qXQ.M $ < # M u.&X .%X} qXNX*X*X*X4 3 y a r H r % O # r H d + :.&.",
"=X:XX 2 & O o # X O O $ : @ @ $ # O O : $ + $ # # # * + - % . # % X 2 + $ + O - : $ . M ] H * o * o O @ o O O @ * # .   @ # :.&.",
";Xm.# ; O & $ $ ; # > $ - @ * # ; - # @ @ $ $ # + # @ - $ O $ # $ @ @ @ $ @ $ O o > % O X X $ @ @ @ : @ $ - @ $ $ # $ $ - - ,.&.",
">XN.# # % & @ % * $ $ + $ $ @ + # $ * $ @ % # $ $ $ $ + $ $ @ $ - @ @ $ @ - # , * @ $ $ $ @ @ $ $ @ % % * $ ; + @ $ @ * # O >.&.",
"b.b.% # O @ $ @ % $ % @ $ + $ : $ @ $ - @ $ @ @ $ $ $ @ @ $ O @ # @ % @ $ * # @ $ @ @ $ @ @ + $ @ @ $ $ @ @ $ $ & + o : o @ -.<.",
"..@.: : 2 : < 2 : - 2 , , 2 $ : : : : - 2 2 : : : : , 2 : : 6 2 3 6 2 : 3 3 2 2 : 6 3 3 3 2 2 2 2 3 3 3 2 2 : 3 2 < 6 & 6 6 9 o."
};
