/* XPM */
static char *TEXTURE3CLEAR1662692509[] = {
/* columns rows colors chars-per-pixel */
"64 64 245 2 ",
"   c #280113",
".  c #3A1C28",
"X  c #304C3C",
"o  c #2A663C",
"O  c #346C3A",
"+  c #36693C",
"@  c #33733D",
"#  c #3B753D",
"$  c #3C7B3C",
"%  c #367A3A",
"&  c #2B642D",
"*  c #447D3C",
"=  c #46783A",
"-  c #547E3E",
";  c #3D2642",
":  c #5B1359",
">  c #4A3F5A",
",  c #522C4F",
"<  c #2B5B4C",
"1  c #295848",
"2  c #345C4A",
"3  c #2D5A54",
"4  c #2B5554",
"5  c #345A54",
"6  c #3C4C52",
"7  c #2D6445",
"8  c #2D6B43",
"9  c #2C654C",
"0  c #2A674B",
"q  c #336444",
"w  c #336D45",
"e  c #396C45",
"r  c #33644B",
"t  c #346B4C",
"y  c #3B6C4C",
"u  c #3C664A",
"i  c #2E744B",
"p  c #2C7849",
"a  c #357343",
"s  c #3B7543",
"d  c #357C45",
"f  c #3B7C45",
"g  c #35734C",
"h  c #3B754C",
"j  c #367B4C",
"k  c #3B7D4D",
"l  c #2A6353",
"z  c #2E6C54",
"x  c #2B6655",
"c  c #356B53",
"v  c #3A6D53",
"b  c #356957",
"n  c #2D7453",
"m  c #2E7A55",
"M  c #357453",
"N  c #3B7454",
"B  c #357C53",
"V  c #3B7C53",
"C  c #35735B",
"Z  c #3B745C",
"A  c #367C5A",
"S  c #3C7C59",
"D  c #3D7962",
"F  c #454956",
"G  c #437543",
"H  c #437C44",
"J  c #42754B",
"K  c #437C4C",
"L  c #4C7C4B",
"P  c #4A7847",
"I  c #527E4C",
"U  c #436D56",
"Y  c #437554",
"T  c #427C53",
"R  c #4A7D54",
"E  c #427459",
"W  c #427C5A",
"Q  c #4A7959",
"!  c #537B57",
"~  c #47694D",
"^  c #666F58",
"/  c #6F5968",
"(  c #417763",
")  c #466A60",
"_  c #667562",
"`  c #734258",
"'  c #9B2B73",
"]  c #D3277D",
"[  c #897854",
"{  c #957661",
"}  c #984969",
"|  c #C94167",
" . c #45853D",
".. c #49853E",
"X. c #4A8B3E",
"o. c #53893A",
"O. c #4B943E",
"+. c #469539",
"@. c #53953A",
"#. c #599A3C",
"$. c #639A3C",
"%. c #5DA73B",
"&. c #64AA3C",
"*. c #6AAD3B",
"=. c #68A539",
"-. c #73AF3D",
";. c #69B23A",
":. c #79B53B",
">. c #348244",
",. c #3B8145",
"<. c #36814C",
"1. c #3C814C",
"2. c #3F894C",
"3. c #2E8451",
"4. c #358253",
"5. c #3D8153",
"6. c #36825A",
"7. c #3C815A",
"8. c #2E804F",
"9. c #3C836C",
"0. c #438344",
"q. c #4B8443",
"w. c #448A46",
"e. c #4C8B45",
"r. c #43834C",
"t. c #4C854A",
"y. c #448A4A",
"u. c #4C8B4B",
"i. c #538D46",
"p. c #5A8B46",
"a. c #53844B",
"s. c #538C4D",
"d. c #5C8D4A",
"f. c #558443",
"g. c #4C9345",
"h. c #4B9446",
"j. c #549445",
"k. c #5B9442",
"l. c #549B44",
"z. c #5A9A43",
"x. c #55934D",
"c. c #5D944B",
"v. c #549A4A",
"b. c #5C9B4D",
"n. c #438253",
"m. c #4A8353",
"M. c #4C8A52",
"N. c #43825B",
"B. c #498559",
"V. c #528453",
"C. c #538D52",
"Z. c #5B8D53",
"A. c #588A5A",
"S. c #4D9151",
"D. c #569453",
"F. c #5C9553",
"G. c #5C9B52",
"H. c #5B955B",
"J. c #5A9A58",
"K. c #698D48",
"L. c #619C45",
"P. c #62954D",
"I. c #639C4B",
"U. c #6D9D4C",
"Y. c #69954C",
"T. c #648E54",
"R. c #629452",
"E. c #6C9C55",
"W. c #659B5A",
"Q. c #6A9C5C",
"!. c #659757",
"~. c #779A58",
"^. c #709D48",
"/. c #5FAA4A",
"(. c #5AA347",
"). c #5DA256",
"_. c #62A444",
"`. c #65AB43",
"'. c #6BAD43",
"]. c #63A54B",
"[. c #6AAC4A",
"{. c #67A64B",
"}. c #74AD4E",
"|. c #76A747",
" X c #6BB245",
".X c #7AB448",
"XX c #6BA25C",
"oX c #69A754",
"OX c #7CAB54",
"+X c #73A55D",
"@X c #74AA5B",
"#X c #78A657",
"$X c #7AB357",
"%X c #578960",
"&X c #5D9762",
"*X c #669E65",
"=X c #7D9F63",
"-X c #5FAA7F",
";X c #6BA362",
":X c #7AAA65",
">X c #7CB865",
",X c #7CB271",
"<X c #8FB23E",
"1X c #9B8556",
"2X c #81AE4B",
"3X c #87B74A",
"4X c #85A958",
"5X c #8AB45B",
"6X c #87B757",
"7X c #94B85A",
"8X c #B4B95F",
"9X c #89AD62",
"0X c #8DBB63",
"qX c #88B668",
"wX c #91B962",
"eX c #95BA67",
"rX c #8DB373",
"tX c #AFB373",
"yX c #B2B871",
"uX c #999B6C",
"iX c #8DC452",
"pX c #96C459",
"aX c #90C94B",
"sX c #A9D259",
"dX c #8BC269",
"fX c #97C867",
"gX c #8DC673",
"hX c #A5C966",
"jX c #A7D466",
"kX c #B1CC71",
"lX c #AFD274",
"zX c #C5D55B",
"xX c #D9E05F",
"cX c #C7D46A",
"vX c #E8D672",
"bX c #EAEC7F",
"nX c #D9D665",
"mX c #549E87",
"MX c #52A18C",
"NX c #BACF80",
"BX c #85DAB9",
"VX c #C8D384",
"CX c #D0E48E",
"ZX c #ECF192",
"AX c #88E1CF",
/* pixels */
"k ,.5.d K T K 7.n.T 7.T R B 5.W k N.W R V W 1.1.W 5.t.W 1.T S N.w.T T W n.r.N.k k B.f N.n.k T K n.S 5.n.7.n.7.V k k <.V k k k V ",
"S j j 5.S V 5.j d 1.V f f 5.H h T V f k T k S j H.dX,.N k 5.V $ B S j T k k A V 5.k j S k 5.k 7.k V k k k k k k k V V k k V k k ",
"S V <.B N <.k k S V S 0X[.t T.qXe.c k j V ,.k N I U.J.<.S k N ,.S d k V f T h f 4.B h k 1.h V j k k k V k k k V k V k k 1.k V 1.",
"T f k V T f f V K V 0.aX:.u.oXaX(.< M 5.7.d f &X~.f `.2.A r.9.MXP >Xn.k k f Q.E.d ! $Xm.d E.+XM V V k k V k V <.V 1.k V V V k V ",
"k f k n.V d 1.S f r.,. .XXl._.$.H t V V 4.V N @X6Xf `.f Z f mXAX#.>Xr.V S h XX5X0.J fXH q.#XU.k k k k k V k V k k V k k k k V 5.",
"5.k 7.k j 7.j N 6.N B 8 G.+.%.k.e N T k d 5.V e. .~ e.r E s mXBX_.% V k k S @ r.M.v p.t q.H 8 k k 4.V 1.V <.k k k 1.V V k V k 5.",
"5.,.N u.0.S t.0.B N <.}.=.(.(..XF.l g 0.1.k J g 0 E 0 Z J d r.n oXS S k 5.k 4.g l N o D 0 g Z N.k <.V V <.k V V V k k k k k 1.n.",
"N.$ L gXW.v qX6Xa N.K jX3Xu Y.sXv.1 D f f D ( f S d T f 4.1.f N I.l Z 1.d k S k V f N k V S V k <.V 1.k V 1.1.1.V k V <.V V k V ",
"4.R.q [.f t.e.h V 1.k u u g N ~ x < Z k f Z 9X#Xd N * k j T f 4.+ N A <.B V k 5.V S <.<.n.<.B J B B.hXV.p k n.k <.K K k 6.B 5.V ",
"7.s y c v v e U S k a N v M g c w U H dXs.a 7X7Xw s.dXr.A T V k n V K h n.,.f J ,.s f V N k k V f J .XG M.0.z <.n.k k B B T s r.",
"k M K g j Z h S B 5.1.V T 5.B A 5.T T XXc.w.|.U.V.5X=XK S V f f qXR h k <.<.,.A j B.6XI N n.S j K S j t K k N S k n.k k k k 5.j ",
"K f S j 6.a t B 7.k j 7.j k 5.4.4.d V h [.0.C.e.A.dX+ k 1.k k s.@XP @Xm.g W <.m g B.9X4Xm.k d 1.k B x S a a r.g g A V n.k j B 7.",
"V % 5.S g Y.9Xp.a 1.5.k k k k k A V T T C.y T K e q.c N ,.5.k I.f X.dXM.k S N i.R.f a fXI.Y n.j V <.Q / / ! i M.Q.s B j r.k k f ",
"V 5.5.f f.tXVXtXf.k V j k K k K V 5.V N 8 Z g c N 8 5.V k <.M @.H {.J q.k M S I.dXm.h L.q.M W V V 1.Z ' ] / M.8XvXK.5.4.k k k H ",
"V K j N VX[   { CXK j 7.k j V K f <.j 6.,.f <.V V S k k K B A q.r F.O C.Y N d A q.D.r D.g z V T K d 7.} | / 9XvXnXcXk j V A A V ",
"k k <.N kX[ . 1XVX# V k k 4.j k T k r.N S E k H k S k K f 7.<.v h l h x @ ,.S V p q E 9 k k <.j <.S j T $.C.h 9XcX~ 5.V ,.k V T ",
"k T S 5.G yXZXtXh f k k V B k d k S V 5.k n.k V 5.,.,.j V V T V T k N V T 1.f <.T S f k W k k K V T V V I.H l k.*.oXk k f f T V ",
"k f f 4.d ].OXs.V k k k V 7.k k 1.f j k V g S V N N 4.V Y k B f V V f f V 5.A 7.k V k 5.j f E.qXk N d <.g t j S.b.O S k <.S V k ",
"k R gXX.h.l.f m B k K k k V V T k V k k V V f f B V j K eXb.p W.k H qXD.j B 5.k f N A K $ V t.U.G.T 5.j y h W h + t V 1.k W N <.",
"j T ;X#./.w.g g 5.k k k k V V k V k j S k k s *X@X* V V U.{.d p.w k.R.R V k d K 4.j V j k Q.*X .%.K S k #X#XY ! @XA.t h ,.d 5.k ",
"4.k s O./. .W.Q.j <.k V 5.k <.<.k f k 5.V k s W.$Xf.k S h 0.V ~ w B.o h N 6.<.N m.@Xk p M 2X|.d /.a M d 3X3Xo.oXaXI.1 Z n.k V k ",
"k K S f l.c.#X:Xg V N g V V j 1.k k k h B j D.f.e.).f B V 8 v C k l W h H.t.s M.4XeXJ c.R a.q.t M.b V d m._.%.(.=.f.u N j 5.k <.",
"k <.B <.v.oXt.h W c < < v W S k 5.k k V 5.f ,X:XK (.k N i.m.B 0.T K V h qXOXP XXfX= c.hXE.3 x E o D k 5.0 e.@.g.z.+ E N <.<.k k ",
"T M S $ (.p.9 b N 2 3 4 < v T k <.k k k B k H.o.a b.1 L hXW.j K k <.j k G 0X}.e.z.R jXd.j 1.f V k T k k L.*.{.*.;.F.o V k k V k ",
"V 5.d 0.&XT 1 < 5 3 3 5 4 N V B V V S k d 1.v c N 1 ! lXL.# $XrXk <.d k k G.k.i.%.W -.m.N J j <.4.k K d 7XpX= Y.lXI.o N 7.d 1.k ",
"7.k k f a h N c 3 b < 4 y a V ( V k T d 7.>.j N V M r..Xm.j.].a.S 1.k S f J.q.K v.q oXz g 6.H Y d 1.j 1.E ~ t ( ~ q 1 Z V k k V ",
"k j V V g h T h N k h + ,XW.@ @ <.V V k V 5.7.f <.B d `.v x.y.J 0 V V S k f g N f u k M d 4.B k g V Y <.i c j N t v h T f k k V ",
"1.k k S 7.V V 1.K k H OX9Xi.c.+Xj n.A V V g k k k N V 0.b V J u g N V k T w h C c Y q 5.V f p M.$XV Y V 1.s 1.k r.k f k k 5.k 1.",
"k V V k k k k 5.f ( H pXZ.* @X,XN h f V T G.e.N f W h r N M e I K k k T N K r.V N 5.1.m V k s.4XwXK E.T B T T k j k k V V S f ,.",
"V V k k k <.V V k B <.`.Y z.j.s t.N n.f a ,X}.K ,.V h V k k M oXO C.h S <.1.k k k k d R.t.g XXpXG e.pXA.j B B f 5.7.V V V S k k ",
"k 1.j k 7.V k V <.j r.c.v w.0.y D.o g V q.s c.j.j B 5.j k >.S e.w A.w M 1.k k k k T c.eXR.0.I.l.* /.H k k k k 1.k k k j 1.<.5.V ",
"f k k S k V k f W k V o Z c b N 9 7.V V (.s B. .l W j 5.K V V g N 9 T k k 5.B V k B.hXd.% 4X7Xu.0 F.2 L.s C k K k k V 5.k j 5.N ",
"k V 5.d S k k A K 1.B S J J S f k K T <.1.k r ~ V 5.R k B V j k T k 1.J T V <.k T K {.1.l.z.s q h r C l y T K k k k k k V V k k ",
"V V A k f H S S B 1.k H V 7.d 7.6.k V d V N :X#Xg C.fXm.j 5.B J <.p <.V V 1.B S >.6.`.t b.,.Y %Xb y k g V A V k k k 5.k k k k 5.",
"k <.M n.$XoXf s A d 1.k S % V V f N B 1.V j j.L.h.w..XK V l.M.E.f 6.j k k f j T 5.j + u y g g + N k k k j V V 5.k V k k <.k k k ",
"1.,.j k }.C.R e.w V B j S ,.y T.5XW a k T j j D.z.a _.O x.q.h T x.S V >XH.J +X+XM m.9X%XO M Z t K B K qXP.g j j V k k V V V k V ",
"V A n.n.$ Y Z h t 7.K :Xr.g G.7X@X* :Xm.S k S H J v 0.c J y H.;X'.f K $XQ.J Q.2XO Y.~.m.% 7.H.:Xd K #X7Xq.H.W.f V k k V k k V k ",
"V N j k e v c w S j ,.eX4XL ;X3X$ ~.eXq.d <.k g z k 0 ( t a }.4X_.k M s m.N U = y m.9 J V M !.7XR.I fX..C.eXY.j k V 1.k V k 5.k ",
"5.f V 1.n.k n.1.j 5.,.G pXoXu.#.x.fXI J 4.k <.N V K n.Z 1.,.j.K d.x S k z z v 9 N 0 S V r.N V d.kXk (.$ 7XE.g k k V V k k V k k ",
"k <.B V V k V j B J V A _.t.S.(.P /.>.S K V S K k k 4.<.V T 2 c < k V k k V V K ,.k k 5.B ,.g +.%.H %.7.#.d.C >.k k k V <.k V k ",
"5.1.k k 5.k V k B V k f ).% r.s.@ XXq N k k k k V k 6.k S 1.k k M W V B S V k k J <.j K J 5.k e.J.0 c.O i.L c $ S k j V k K k 5.",
"k V V <.k j k 5.f k S k g t N e h 7 h V S 1.S V S $ f K V M V V r.d B.C V <.k k S k 1.k k 1.j k w N c g t r ,X5X$ k <.k V k V j ",
"k j 5.5.V k k k ,.k V T t E M k N c S k A d f J M C.9Xq.k S k k V >.d T a k V V B V f k S V d M g Y C 5.h y t.4X$Xk k k k 1.V V ",
"k 5.j k V k V k f S V B n.A N 5.A n.k 1.B k ;XE.C E.lXw.e #XI.B V 5.a z.7XT.y S <.V W h g d r.T r.J 1.i #XF.a W.6XW k >.7.k k k ",
"<.5.k 5.k k V k V Z S a d B V h k f 1.<.j V ;XoXq.e.iXr.E.wXQ.M 4.V V j.hXkXT.e H k + 9X9Xt.j k A k B 5.#X+Xj w.L.c k 5.A f V k ",
"V k 5.V j k k 5.7.s a.c.d.t.k 7.V k k N V j s k.#.j oXJ pXT.c k ,.j T k e.fXfXp.N K Y.bXcXW.M V B j A <.f V.h Y a.9 V <.V k k f ",
"k k k j k V k k <.,.{.hXhX#Xd k T k f W k 7.V M.e.e S.q c.y t k V k k N V @.iX5Xm I ZXxX3Xe.k L K.c.T d S w N v 7 S k k 7.T S f ",
"n.k k k 5.m.T V V M.I.:.:.$.C.k T k M.f k V <.t z ) 7 J l N K <.T W j 5.V l.;.k.A Y.ZXzX.Xy.,.E.sXhXM.A V f f 6.Z V ,.f k V j 5.",
"W j H A u.sXo.E V q K ]._.J r S V f.sXi.V <.r.k k T h V 1.M 7.f V V ,.k 6.v.`.@.C.cXcX.Xy.h #XsX-._.n.B d T N A B V H 5.<.E Q S ",
"6 K 7.K oX2XhXe.5.9 s (.(.s 9 1.p.fX.XI.T V Z S k V 1.% A 1.1.V k V k V j l. X@.M.-.-.h.a 2XpX-.Y.a 2 N <.6 , F T V s V r.6 , F ",
"F s <.J s =.3X`.y.7 H `. Xs 7 w._.3X=.s V k V V 5.V k ,.N k k k <.V k V V l.`.O.w *.].o u..X:.z.9 4 5 E 4.F : : 6 k B W 6 , : F ",
"~ 0Xr.Z < %.%.[.u.M v H 0.v N M.;.(._.2 C k 3.f j j n.gXC.K N V k S <.B V r.#.{.V.* E.7 c. Xc.r 4 4 U V <.~ , / uXs 3.T uX` , v ",
"m.pX5.r.#X_.O.u.g.S.v c c M M.g.w.@.(.4Xm.k 6.5.<.N r.iXL q.T g k V 5.j S k $ D.I.1 K a.L L u < 5 v k V k 5.r _ 2Xs.d s 6X^ + n.",
"C.=.r.C.9XiXX.g.l.g.e.N v e.O.l.h.o.iX4XI k <.J V 5.K = y L n.r <.k V V n.k @ w q.l c t.h 5 w r c T V V 1.>.N.f ,.D.S.,.l.O.2.M.",
"l.h.t.c ~ wX|. Xg.g.G.K J ).g.u. X}.7Xu v W k s V k V 9 Z 9 M n.k k V 5.k k V M 7 R E 9 B <.j 7.V k S V k V S j <.g.`.,.l.h.O.G.",
"M B k T Y & G.z.`.g.M.F.D.y.l.`.L.Y.o B k f V 6.>.S k w.n.V N <.V V k >.k V S k 7.f V k S T T f k ,.V V d 5.k V n.`._.W j v.@.Y ",
"j k j V J T 0 1 j.'.t.u t q.'.x.< < T H T V k k E k q.lX%X$ V B V j >.A B K K B V B V k 1.d 5.T V V k V V V V V k  .W.7 v J. .k ",
"k k r.k B N a c.'.X.1 < < 1 ..'.c.$ V B <.5.k <.j Z.jXp.$ qX9Xd J Y f 5.K 9X@Xf $ k 5.j V k k k k k k V k V k k k j w h T w h <.",
"K j V V B H fX.X&.(.!.v.c.b._.&.}.fX* A B k k j B t..XY l.I.t.d t.dX..a 4X9XL R.rX,.f W V k k k V k V <.<.V k k k A g T T M S k ",
"J S V k r.eXiX;.'.b.q.t.m.q.G. X*.pXwXL B V T K >.B.].e {.k r.u.m.#X7XL }.#.Q.5XW.* h V S V d 1.k k k 5.k k V 1.k 1.V V V V <.k ",
"V k >. .4XqX_.;.@.h T K K k h @.;.=.5X4Xq.4.j T <.J L w H v P T k Y iXf.j.X.#X.Xi k 5.k k 7.k k 5.k <.V V k <.V k <.k 1.k k k ,.",
"5.<.k V.qXo.u.x.f f b.l.z.b.s f u.u.o.qXs.M j <.6.Z 7 B z v t t k n._.f v.e.a.l.M V V <.j k 5.T k V V k k 1.V k k V S k k S V k ",
"j 7.V N K D.O + v. X*.z.z.*. Xv.q @ D.H T N n.d >.S W <.j V V n.k V H.8 t.J T r.0 T k k <.V g k k k k k V V k k n.k V V k V j V ",
"r.g 5.,.<.t.{.[._.=.%.`.`.=.'.'.oXoXj.5.r.n.T m.5.R K 7.n.n.5.T 5.J r S y U N u B.T K m.S n.n.1.n.n.5.m.m.n.n.V n.T V r.r.7.T k "
};
