/* XPM */
static char *TEXTURE2CLEAR1662692885[] = {
/* columns rows colors chars-per-pixel */
"64 64 256 2 ",
"   c #00091C",
".  c #02141C",
"X  c #06171C",
"o  c #18151E",
"O  c #032B1C",
"+  c #3B351F",
"@  c #040E24",
"#  c #070C2A",
"$  c #031525",
"%  c #0A1425",
"&  c #021A25",
"*  c #0B1B25",
"=  c #03162A",
"-  c #0A152B",
";  c #031B2B",
":  c #0B1B2C",
">  c #131B26",
",  c #1C1C23",
"<  c #12152A",
"1  c #1B132A",
"2  c #131B2C",
"3  c #1A1B2C",
"4  c #151424",
"5  c #031D32",
"6  c #0B1D33",
"7  c #0B1E3A",
"8  c #061633",
"9  c #131C32",
"0  c #1A1C33",
"q  c #161B37",
"w  c #140C22",
"e  c #221B2E",
"r  c #27162A",
"t  c #271C33",
"y  c #37122E",
"u  c #022325",
"i  c #03232D",
"p  c #0A232C",
"a  c #032C2B",
"s  c #0B2B2D",
"d  c #062525",
"f  c #14222E",
"g  c #1B222D",
"h  c #11272B",
"j  c #07372B",
"k  c #11342A",
"l  c #032333",
"z  c #0A2333",
"x  c #032A35",
"c  c #0A2A35",
"v  c #04253A",
"b  c #0A253A",
"n  c #042C3C",
"m  c #0B2B3B",
"M  c #132334",
"N  c #1B2332",
"B  c #14233A",
"V  c #132A3A",
"C  c #192A39",
"Z  c #033335",
"A  c #0B3435",
"S  c #0A3B34",
"D  c #03323D",
"F  c #0A333C",
"G  c #023C3C",
"H  c #0B3B3A",
"J  c #053B33",
"K  c #13333B",
"L  c #143435",
"P  c #27262B",
"I  c #35292C",
"U  c #242333",
"Y  c #222A35",
"T  c #292635",
"R  c #372937",
"E  c #273438",
"W  c #383831",
"Q  c #2A3625",
"!  c #4B122A",
"~  c #590D2F",
"^  c #650D2E",
"/  c #432636",
"(  c #4A3334",
")  c #7A303D",
"_  c #07452C",
"`  c #0A4434",
"'  c #0B4D35",
"]  c #044A3B",
"[  c #084639",
"{  c #144939",
"}  c #0C523B",
"|  c #0C5B3C",
" . c #065538",
".. c #135B3D",
"X. c #14553C",
"o. c #13452C",
"O. c #2C4838",
"+. c #08653C",
"@. c #096C3A",
"#. c #2D603A",
"$. c #544C33",
"%. c #7A6427",
"&. c #76572B",
"*. c #052D42",
"=. c #0A2D42",
"-. c #082947",
";. c #162A43",
":. c #043342",
">. c #0B3343",
",. c #0A3944",
"<. c #073748",
"1. c #163744",
"2. c #073650",
"3. c #263946",
"4. c #383D49",
"5. c #0B4C43",
"6. c #094646",
"7. c #144B47",
"8. c #0C5344",
"9. c #0C5D45",
"0. c #0B5C4C",
"q. c #075644",
"w. c #135849",
"e. c #165652",
"r. c #0C5F53",
"t. c #284857",
"y. c #36575B",
"u. c #284E4E",
"i. c #0C6444",
"p. c #05654C",
"a. c #0A644C",
"s. c #036C4C",
"d. c #0A6B4E",
"f. c #076A46",
"g. c #146D4A",
"h. c #166848",
"j. c #047444",
"k. c #0C7B45",
"l. c #0C734A",
"z. c #0B7B4C",
"x. c #057648",
"c. c #137849",
"v. c #0C6C53",
"b. c #096654",
"n. c #126453",
"m. c #146A54",
"M. c #097654",
"N. c #177955",
"B. c #2A754A",
"V. c #305365",
"C. c #346869",
"Z. c #4B4D58",
"A. c #6A4F4A",
"S. c #455969",
"D. c #525868",
"F. c #49696B",
"G. c #737174",
"H. c #786165",
"J. c #823A3E",
"K. c #905729",
"L. c #8A6B37",
"P. c #907D30",
"I. c #B97C2B",
"U. c #A37730",
"Y. c #AF3C51",
"T. c #853946",
"R. c #CA3747",
"E. c #E9384D",
"W. c #8E4352",
"Q. c #B74B55",
"!. c #AE586C",
"~. c #847C7E",
"^. c #B56B78",
"/. c #835363",
"(. c #C74858",
"). c #CC525B",
"_. c #EF4857",
"`. c #EF5569",
"'. c #CC6D75",
"]. c #EB6E76",
"[. c #018A3B",
"{. c #04923C",
"}. c #04854B",
"|. c #0D8B4B",
" X c #098847",
".X c #138949",
"XX c #039544",
"oX c #0A9345",
"OX c #0C944C",
"+X c #039B4A",
"@X c #069848",
"#X c #068953",
"$X c #168857",
"%X c #099655",
"&X c #169558",
"*X c #19934E",
"=X c #268656",
"-X c #07B84C",
";X c #0CA352",
":X c #0CAA56",
">X c #15AD5B",
",X c #16A856",
"<X c #0CB559",
"1X c #0DBB5B",
"2X c #06B857",
"3X c #14B75A",
"4X c #09A84D",
"5X c #358D71",
"6X c #18A966",
"7X c #18B763",
"8X c #0BB364",
"9X c #2AB46F",
"0X c #22A255",
"qX c #08C358",
"wX c #12C559",
"eX c #0BC550",
"rX c #12C565",
"tX c #21C169",
"yX c #52A06E",
"uX c #BC801E",
"iX c #BB8727",
"pX c #B88634",
"aX c #B29133",
"sX c #D0A537",
"dX c #C08937",
"fX c #D7AD41",
"gX c #427F80",
"hX c #686E84",
"jX c #BA7F91",
"kX c #D77D8A",
"lX c #5D868A",
"zX c #739091",
"xX c #75BD94",
"cX c #49AF80",
"vX c #67CC90",
"bX c #5ECD8B",
"nX c #818F98",
"mX c #AD8D92",
"MX c #B6A297",
"NX c #8999A3",
"BX c #AD9DA5",
"VX c #89A8A5",
"CX c #95A8B3",
"ZX c #AEB0B7",
"AX c #DA8C94",
"SX c #A3D4BA",
"DX c #AEE9B8",
"FX c #90CAB2",
"GX c #A6B8C2",
"HX c #B4CFCA",
"JX c #A8E0C2",
"KX c #C1D1CA",
"LX c #CCEED5",
"PX c #F4FBF6",
"IX c #E1EEE7",
"UX c #DDFDE6",
/* pixels */
"x v n F D D D n D b B ;.H G <.2.m -.v v v ; = 7 n x b l v 7 5 & - = l v *.=.v *.=.n *.>.>.>.D D <.n l : l n V E ;.V m c z v n c ",
"z l m >.,.:.D =.:.D :.:.,.,.*.m v n l l l l z 6 5 5 * ; l l v ; ; & l i x n *.*.v v n *.m n :.,.:.n x l v n c C =.=.V b b v n >.",
"n x v l F >.<.:.<.n >.<.:.D D c n x a l v v l a ; c H H A p & $ = $ $ & ; l =.v l l x x n v n :.n n x z x v l M p * > N b v l v ",
"=.; : l m ; ; l F G G x b m z s z ; z 5 8 b & i q.a.v.M.b.r.x $ = - $ % $ = b =.l l l l x l v n v l z z 6 x z B > g U N M ; : 6 ",
"x j X.N.g.| ..+.9.a.n.w.Z & E Y l : z x J } 9.i.}.j.p.b.b.e.i % $ $ . $ ; 5 v z z z i l l l v n b x l l 6 x v V x B 2 - $ % - 6 ",
"a.z.OX+XXXXX@X@X#Xj.p.d.q.u 4 U i z i [ $X%X+X@X%Xl._ K x = $ % 3 3 4 o ; 5 v l ; l x l b l b =.v x l x v n n v 6 ; $ u J _ [ _ ",
"x.%X{.{.XX+XXXOX#Xj.m.5XFXnXE . $ % . j B.x.j.c.N.X.. @ $ & & $ 0 t I I P ; ; 5 ; z l l 6 l 5 v =.n D n *.*.*.x z 3 L h.|.|.|.|.",
"N.5XOXoX|.$XM.x.x.p.m.HXPXLXHX% & u L d X & $ . . * 3 3 1 > 2 < & 4 P ( I 1 6 7 z z 5 ; ; ; ; ; 7 v n l l v n x v = M m.,X:X:X<X",
"5XPXzX_ ` { c 7.d.b.q.u.HXCXZ.$ & N.tX:X..> c s v $ & $ < e U z 3 & ; 6 N 9 4 > 1 2 3 q 5 = - ; ; 6 z x p t t P 3 c & L g.}..X.X",
"B.HXVX] 6.x G b.a.p.M.p.} .   - w j _ h.d.a.d.f.b.5.S p Y ( ( , ; i 9 - . S l.@...O w - $ $ $ $ = ; ; ; 1 y ~ ^ R U % w C k L S ",
"n.i.z.>X:X&X.Xz.x.i.a.a.} 8.h.+.l.' X s b.s.s.s.p.v.n.7.& , o : B.$X[ 7.] v.%X&X&Xj % z A Z x - = ; ; $ * < 1 1 < i $ > s h g s ",
"n.+.:XeX2XqXqX<X,X..X.a.h.$X8XqXwX7XX.u 8.a.p.a. X X#X.Xc...k X { c.l.i.g.a.M._ Z ; 1.n.v.b.p.H ; & : = 5 ; ; ; 8 $ p [ | l.z.|.",
"G 9..X1XrX>X>X1X<XOX%X}.}.l.#X;X4X+Xx.l.f.x.}.6X,X-X-X3XoX XX.* $ ] 5XDXJXC.G i 5 s  .j.f.i.m.K -.7 5 5 5 = $ & = & { h.j.[..XOX",
"q.h._ #.g.j k OX@X X.X*X$XN.f.x.&XxXyXXXoXoX2X1X1X2X2XwX3XOXN.K # $ Z.KXIXF.u x a B.0X<X%X9.6.x n b f l l v ; & = $ k w.j. X*X*X",
"eX3X,X..@ = & } k.vXSXDXcXp._ =XSXLXDX*XXXoX4X2X4X>X>XOXoXj.' X & u j ..=X.X}.c.c.<X1XrX6Xj u v p E ( T z l 5 = = @ $ S i.l.}.}.",
"wXqXrXi.# 8 = $ u.HXLXDX>X:X#.B.HXPXUX9X2X>X<X>Xo.O f , , > % % c.>X7X<X4X{.{.oX{.4XB.#.{ g Y ;.g T I g : = - % $ ; * & k j ' ..",
"..h. .X * x x = i.$XbXbXwX1X3X@.=XvXbX-X-X1X<X2X8XO #.g.c.{ w 2 c.6X;X:X<X+XXXOX#Xh.R ! / K A q N C N g % X & ; $ = * , r X c 6.",
"% o k  . X%X.X@.j.l.}.+X-X1X:X:XoX[.+X1XqX1X1X1X3XoX3XwXeX,XX.% 4 s a Z ] 8.e.0.5.a p Y 4.1.l 6 : * * g 3 : $ = ; = % T R Y f p ",
"< 7.$XOX.X[. XoX%X..i.<XwXeX-XeX,XXXOX|.z..X%X4X@X:XqX-XwX7Xh.> t t e < = 6 B n b z 5 9 q q ; ; ; $ % % < N % = $ = - 3 3 1 % & ",
"& ...X[..X.. .g.|.` L &XwXrXwXqX>X%Xc.k X . j g.x.g.| ' X._ * & X d N 3 ; & : z > g 2 2 6 = l x = $ ; $ = N : - & 5 ; = % $ * d ",
"- } ,X4X;Xl.w.h A z # A { 7.{ ' { q.8.6.q.6.F & & $ $ = # @ 1 f > 3 0 0 - = 3 3 R / I > & z l n 5 = = & ; z : : & 8 = & : ; l A ",
"z h.3XqX9XS . : : 5 ; % # - - 5.a.d.d.v.s.M.a.z q t 0 = ; t T f 0 : 2 q : $ N 4 P ( / r < : - 8 ; 5 & z 5 = = = $ - 5 $ & ; l H ",
"z d ` ' ` X % - < 2 u $ $ ; a n.n.M.x.s.n.d.q.6 = ; > r T g % & $ $ $ * * $ f % % & $ > 2 $ = - $ : l b 5 = = # $ = % $ & z x z ",
"m v z 9 % 9 9 * $ 4 3 3 2 1 ; u 1.[  .5.H s p = = & & f p : 3 - : * % % 2 1 e : = = ; $ : 3 > * : : ; z ; = - - $ $ $ $ p V x l ",
":.n v b b i < 3 p : % $ * : * % $ % % % = = 8 8 8 6 q 9 $ & 2 - > 2 3 9 : r - : = * $ : @ % : - 2 - : 2 < = = & ; ; ; 5 l n F n ",
"m :.D b b 5 : = < 3 9 % @ < e T 2 2 > 1 % $ = - ; ; 3 : & $ = & = = = 7 0 f $ Y nXCX3.. : : $ $ % $ % : 2 - = & z 5 p ; z F F n ",
"C K c x l l m n 6 z V f : C 0 9 3 % > R R N & $ & $ ; & ; ; & & 2 N C !.A.E A.mXCXNXV 3 g g U 4 % $ $ % : - ; l l p l l c m F m ",
"b B V L N 0 b l n x c M N V x l N & 4 t R > . ; 5 = = ; 8 5 3.G.!.).W.).).T.Q.H.K C $ $ % % > U 2 - $ $ - ; ; l i l i z c m c C ",
"B V V P ! t c z 7 l i N 9 z v n B b l ; & & ; z ; p & = = @ d D._._.`.E.AXAX!.Z.= @ ; = $ - = $ : : p & 5 ; l l l l l z c m M C ",
"z b : ~ ~ t l N q l i f N i l l v =.:.:.n x l l x 5 x i 4 ( ) W.R.'.MXjX/.lXS.6 = = 5 $ ; = = = : z l x b m m v l l z l z z z 0 ",
"z z U ^ ~ i l 2 z x x c B b x n :.D n >.1.:.n x v v l i G.^.R.R.^.BXxXV.7 = 7 q ; i ; & ; = = = : l l v =.=.*.*.x v x x x l : 6 ",
"& ; e ^ ! i 7 l z x D V C 1.n n n n n *.<.:.D c p i p i zXZXjXmXNXF.lXV.5 8 = = $ $ $ : $ ; ; & = 5 x n :.*.*.:.*.n n n n l l z ",
"; & r ~ 3 i z b i x p x T K.$.O.( $.O.n n E c n l i a 5 ;.y.y.y.;.5 1.l 5 5 $ = ; $ % ; = ; ; 6 & i v n v m n :.6.e.7.8.5.H l b ",
"b 5 1 y . & ; l b -.l n X K.pXpXpXuXU.L.%.L.$.u 5 v x x 7 l i 8 *.*.n 5 @ - % $ $ * . $ * % $ = < $ = l 5 l n e.v.s.f.z.#Xl.h.X.",
"b B b b i 6 v n -.<.V -.m P + %.pXiXiXiXsXsXsXaXO.b n b b n *.=.*.*.l ; % & & & = $ = 8 = & & & $ & ; x l 5 n <.0.p.j.}.%X[.oX.X",
"$ ; l n v b z v x i m -.D i l I I.pXuXiXiXaXsXsXaXE v l l v n n n i ; $ % = = & & & $ - - $ . - & i ; l x b n v J 6X$X` n.g.} [ ",
"; i ; = = = ; ; u x ; v *.i c N ( + A.L.I.pXpXiXpXW 6 i v l v n b ; M $ & & ; - $ $ ; = # @ & 5 5 l x v l l v l j N.h.: ; i i b ",
": & % $ = & : z x l z *.2.n *.n x x d + K.&.Q $.k p i v 7 = 5 -.n v 5 v b z z ; 6 = ; = i ' h.] b 5 : p z x 6.6.F u ; n v l Z z ",
"$ = = ; z ; z x v x Z x D 1.=.x :.*.D E $.E -.=.-.-.p ; 3.C.k g C C >.x v v l l p ; i a l.>X7X,Xx i i u S e.v.s.a.0.H v n =.m 9 ",
"5 x c x x n m D n -.D D <.<.D *.D :.:.,.*.:.:.*.D v i i zXKX/.Q.(.!.G.H x n m z l l l 6 A | +.[ i A 5.q.M.M.j.s.s.b.H n :.m D Z ",
"n D D G >.:.,.F ,.,.:.:.>.1.>.G :.:.,.G :.:.*.n -.S.( J.(.kX]._.E.(.BX1.:.D D *.*.n n n n x 6 6 ] |.XXOXoXXX.X8.1.:.v n n =.n A ",
"D D :.:.:.D D D *.:.<.:.n v n D <.>.n x v *.n ; L mX`._._._._.R.Q.mXzX6.:.,.:.v b n v z l 5 l l e.&XXXXX|.OXN.H l x x n =.<.:.,.",
"n :.<.>.:.n n :.*.F n x l l v n >.x x x n l ; 3.Y.`._.].AXR.(.^.Q.G.A n m n v l l ; ; = = = = = a } g.s.v.| a B m m v n n :.<.>.",
"n n n :.:.n n =.m n n n l ; x n ,.D x x i i C nX^.(.E.jXKX^.!.MXmXZ.; m v l l x z : = % % = $ $ ; p l *.=.V 2 z q B M z x x m =.",
"n *.*.:.n *.n *.D n n m v n n m :.*.e.t.1.t.NXZXBXMXQ.jXVX~.G.CXzX>.x v 5 l z i ; = $ % - = = = = 6 v -.=.5 f g B M 3 C L K K c ",
"*.n n n *.D *.D :.n n n n :.=.n x l VXGXzXy.t.4.4.4.F.lX3.i V C.C.*.x l z l ; = & $ $ = = $ & ; 6 5 i ; i d h e V i a [ w.w.w.[ ",
"D n *.D n :.:.n x F n n x n v v 5 b S.ZXF.    % $   t.t.# 5 m 5 v =.6 ; ; ; ; = $ = $ ; ; = ; ; & 6 9 g > 3 Y * $ & G n.s.x.p.9.",
"D :.D D n D n D D m v l x n n v n ; p 3.f $ ; $ = : # X X ; - 5 5 5 ; $ $ $ ; ; = = % = = ; : 6 N 3 0 N N 9 = $ ; $ l 7.r.s.d.v.",
"c D *.*.D n *.<.*.-.5 n D D *.m n =.=.5 & $ = = $ $ & & & ; = $ - - 6 ; = = ; $ & ; ; ; * ; ; : = ; ; 5 ; ; 5 ; = & & $ : ` &X1X",
":.n D :.n n n x x l -.=.v v *.2.=.5 5 ; ; ; = = 8 - = 5 = = & = = $ d u * = $ q l ; z 6 ; = $ $ = = = = ; ; ; ; 5 = $ % : u 9.$X",
"D m m *.2.-.F h.l.} x 5 p * l n ; = = ; & & & 6 5 = 8 - $ = = = j h.}.[.g.S $ z ; ; : z = = ; $ ; - = = = = ; ; ; ; * - 2 b s s ",
":.*.=.*.*.6 Z N.$Xw.l & 9 6 i z * ; = $ ; & ; $ = & ; $ $ $ = $ L N.+X@X$XG : ; ; ; l ; $ $ - $ $ = = = & = = = ; & = ; ; n z c ",
":.:.m [ #Xh.s *.-.n 8.z.v.p.M.j.d . ; ; = $ $ - $ $ & $ ; ; = 5 = i j ` m 5 6 l i z z ; = - $ = - $ - & - ; ; $ ; $ ; c l x x A ",
"x :.F 9.7X&X[ <.-.8.;XwXeXqXwX3Xu.& & = = ; $ = - - - - - - @ % $ $ % - = = 8 & ; 5 ; $ ; = $ * * = = $ % $ % & = i ; l x c D D ",
"m *.-.=.G Z J 6.j +.OX:X,X1X2X;Xn.Z x b l ; ; $ & $ @ - . p a j d & $ = & = - - = ; ; $ $ & = $ $ $ & = $ & - - $ ; 5 c m n m >.",
"n n :.n K w.N.|.oX X Xh.} s.M.d.a.r.F v m n b ; u s p p a g.*X%Xw.$ - 8 $ & & = 6 * = ; = ; & = $ ; $ * & $ & $ % ; z n n D :.:.",
"l v m v x h.&X@X.X&X$X6.x x 7.w.e.G a l 6 6 l ,.0.b.n.n.s.x.z.l.C & $ $ = ; = & : ; : ; ; : ; - ; ; = = ; $ & $ & l x v n n D D ",
"p ; v v l x S [ ` ] [ m m b x l i l i d a J ] h.x.s.s.p.s.d.0.j i ; z 6 ; l l 5 ; ; & = = = ; ; l 5 ; & $ = & ; : ; c b n n D x ",
"p i x v v 5 5 6 ; n *.v 7 v n n 5 v 5 5.N..XoXoX#Xs.p.v.b.0.7.i i i x l x m m l z l z 5 ; ; ; & ; ; ; : = ; ; = ; i z x n n x m ",
"& ; i ; ; l l l v =.=.x l x x l x l x 6.$XOXOXXX$Xa.7.r.5.G n v x x l v *.n n l l z l x z l 5 ; $ = = : * = & & ; i i l l x x l ",
"; $ $ $ % $ & i m ; = * ; ; l 6 i v *.D ]  .0.0.[ Z n D D D n :.n D n >.*.n D n l l l l x z l z 6 & = ; ; = ; ; ; ; i l z l l l ",
"* $ $ ; = = 8 5 m l = $ = ; l v p l m n n n n *.v =.*.n >.>.m =.G >.F =.n n F D x x l i l l l l p = $ = $ $ ; : u ; ; 5 ; l i ; ",
"& ; ; ; = 5 8 = l m x $ = ; i l l i x >.*.n n >.z n D *.:.D n m D D m n n n n l l l l l l i l l & & $ = ; ; ; ; & ; ; ; ; 5 ; ; ",
"p l ; l z p & u 5 m m ; 6 : $ z c m z n >.>.D A ,.G >.>.F ,.G G ,.F m F b x c c x c x c z c c c 5 : p : : 6 z l ; i : ; : ; : ; "
};
