/* XPM */
static char *SOUTH1662694591[] = {
/* columns rows colors chars-per-pixel */
"64 64 248 2 ",
"   c #300F1E",
".  c #7A1A14",
"X  c #762D17",
"o  c #285E3B",
"O  c #2A673A",
"+  c #356A3B",
"@  c #3D7A3C",
"#  c #37783D",
"$  c #2A672E",
"%  c #44433E",
"&  c #447D3D",
"*  c #46773C",
"=  c #547E3E",
"-  c #45284C",
";  c #4C2C52",
":  c #621362",
">  c #2C5C4C",
",  c #285846",
"<  c #315C4B",
"1  c #2D5854",
"2  c #355653",
"3  c #35474E",
"4  c #2C6545",
"5  c #2C6A43",
"6  c #2C654B",
"7  c #2D6C4B",
"8  c #256747",
"9  c #326544",
"0  c #346C44",
"q  c #32644C",
"w  c #336C4C",
"e  c #3A6B4B",
"r  c #3A6847",
"t  c #2D7649",
"y  c #347445",
"u  c #3B7543",
"i  c #357B45",
"p  c #3A7C45",
"a  c #35744C",
"s  c #3B744C",
"d  c #357B4C",
"f  c #3B7C4D",
"g  c #2C6454",
"h  c #2D6B52",
"j  c #2C6657",
"k  c #356C53",
"l  c #396D53",
"z  c #366756",
"x  c #2E7B52",
"c  c #2B705B",
"v  c #357453",
"b  c #3B7553",
"n  c #357C53",
"m  c #3B7C52",
"M  c #3B745A",
"N  c #377C5A",
"B  c #3C7C59",
"V  c #34745A",
"C  c #3D7A61",
"Z  c #444C55",
"A  c #74555A",
"S  c #436B4B",
"D  c #437544",
"F  c #447C44",
"G  c #42754C",
"H  c #427C4C",
"J  c #4B7C4B",
"K  c #4A7947",
"L  c #446C56",
"P  c #437554",
"I  c #427C53",
"U  c #4B7D53",
"Y  c #44755B",
"T  c #427C5A",
"R  c #497956",
"E  c #527855",
"W  c #507C4B",
"Q  c #626C5A",
"!  c #507A62",
"~  c #6F5E63",
"^  c #861614",
"/  c #903014",
"(  c #953527",
")  c #A82F10",
"_  c #A7581D",
"`  c #954A34",
"'  c #944B2A",
"]  c #A75729",
"[  c #B35435",
"{  c #BB7036",
"}  c #C57337",
"|  c #C93371",
" . c #897854",
".. c #B46A4C",
"X. c #B7674B",
"o. c #B77249",
"O. c #B76A55",
"+. c #BB7A5C",
"@. c #B77957",
"#. c #AC6F43",
"$. c #B87C66",
"%. c #B66E60",
"&. c #935C66",
"*. c #C4745B",
"=. c #CA7765",
"-. c #A0306A",
";. c #3F803D",
":. c #47883C",
">. c #4A953B",
",. c #53943C",
"<. c #579C3C",
"1. c #55873A",
"2. c #619C3E",
"3. c #5EA339",
"4. c #65A83A",
"5. c #69B23A",
"6. c #76B43B",
"7. c #3C8146",
"8. c #35814C",
"9. c #3C814C",
"0. c #378444",
"q. c #358153",
"w. c #3C8153",
"e. c #3C8159",
"r. c #36825B",
"t. c #2E854F",
"y. c #438345",
"u. c #4C8444",
"i. c #448C44",
"p. c #4C8C45",
"a. c #43814C",
"s. c #4C844B",
"d. c #45894B",
"f. c #4C8C4B",
"g. c #538C46",
"h. c #548B4B",
"j. c #578747",
"k. c #4D9445",
"l. c #4B9648",
"z. c #549444",
"x. c #5B9C45",
"c. c #54944C",
"v. c #5B924C",
"b. c #5B9B4C",
"n. c #559A46",
"m. c #428253",
"M. c #4B8452",
"N. c #4B8B51",
"B. c #468757",
"V. c #538653",
"C. c #538C52",
"Z. c #588856",
"A. c #559253",
"S. c #5B9454",
"D. c #5B9B53",
"F. c #5B965A",
"G. c #4D9154",
"H. c #629B43",
"J. c #6B9E4C",
"K. c #65974B",
"L. c #638B52",
"P. c #619553",
"I. c #639C5B",
"U. c #699958",
"Y. c #719A57",
"T. c #6F904E",
"R. c #5DA443",
"E. c #59A34A",
"W. c #5CA355",
"Q. c #63A445",
"!. c #64AA42",
"~. c #62A44C",
"^. c #63AA4B",
"/. c #6AA648",
"(. c #75AB4C",
"). c #66B444",
"_. c #7CB54A",
"`. c #6BA757",
"'. c #74A353",
"]. c #7AA354",
"[. c #76AA5A",
"{. c #7CB257",
"}. c #5E9762",
"|. c #4B8963",
" X c #689E63",
".X c #729962",
"XX c #6BA460",
"oX c #7AAB62",
"OX c #79A765",
"+X c #7AB76B",
"@X c #80B53F",
"#X c #B88259",
"$X c #86B54A",
"%X c #84A958",
"&X c #89B55A",
"*X c #93B757",
"=X c #999C67",
"-X c #BA8364",
";X c #BA836A",
":X c #B68568",
">X c #BB8474",
",X c #82AB64",
"<X c #87B766",
"1X c #93B667",
"2X c #8FB36B",
"3X c #B0B66E",
"4X c #9A8556",
"5X c #C68868",
"6X c #D48D6A",
"7X c #C38A73",
"8X c #D79D6D",
"9X c #D7A16B",
"0X c #CDAE7D",
"qX c #D8A97B",
"wX c #DBB27D",
"eX c #D8B278",
"rX c #E6B27B",
"tX c #E1AC7C",
"yX c #93C75C",
"uX c #97C758",
"iX c #89C44B",
"pX c #A8D25C",
"aX c #A8C859",
"sX c #8CC469",
"dX c #98C667",
"fX c #94C973",
"gX c #A7CA67",
"hX c #A9D369",
"jX c #AFCF71",
"kX c #CBD95B",
"lX c #CBD46D",
"zX c #E5D672",
"xX c #EFCC56",
"cX c #CCA984",
"vX c #CEA687",
"bX c #D4A682",
"nX c #D2A984",
"mX c #DBAC82",
"MX c #D6A788",
"NX c #DBB283",
"BX c #D3B181",
"VX c #D1A894",
"CX c #E3B186",
"ZX c #E5AD87",
"AX c #B7CF85",
"SX c #C8D384",
"DX c #D1E48F",
"FX c #EBEF8E",
/* pixels */
"/ _ f f w.p p 8.H f w.p w.d 9.b m m m m m f m f f m f f f f m m f 7.f d f m.p m w.f n b I d w.b i B b m.f B 8.p b d w.m I H X ^ ",
"6X9Xe.n n m f B n f b 7.B d e.0.f m f w.m f m f m f 9.m w.f f f B 8.d w.m m 9.v f 7.m F p w.f s m.m p f m f m d I.sX# B u n $.O.",
"mXwXi d N I w.m p n B a b a.p y f f 9.m f f m m m f f m m f f m N f 9.m b 9.8.w.w.b I <X/.7 U.<Xp.7 f f B 7.7.v K ~.F.9.p r.:X+.",
"vXwXoXs.n H v U.].x B.%XM.a U.[.f n f f m f f 9.f f m f f f m 9.m H H b w.p p I f b y.iX_.p.J.iXK.> M w.B p f }.[.F ~.M.w.8.;X*.",
"MXwX&Xs.b f f U.$X7.u gXU u.OXJ.f f m f m f f f 9.m f m d w.m f 8.f b I w.i 9.b i a.7.:.~.<.Q.3.F w I m f m b [.$XG /.0 v x 7Xo.",
"bXwXH p m f 8.y h.f.9 C.q f.G 9 f f f m 9.f m m m f f m f f f m 8.9.e.d d e.d b e.b B 5 P.>.<.g.0 l m 9.d 9.T p.u.0 v.8 s B ;X..",
"bXwXn e.b w.8.B 7 6 f 8 v k k B f m m m m f m f f f f f m 9.f f n 7.m h.7.B d.u.m b w.).4./.Q._.F.h a y.9.f f w h b 8 B y.b $.O.",
"qXNX4 M N 9.f I H B B s m.a f b f f 9.9.f f f f f m w.f f m m f B & J fXU.z <X&Xp T H hX$Xr Y.gXv., C p p C T f m p C 9.f d -X#.",
"qXmXa T f f p m.B f 9.n 7.7.i B b 8.:.dXZ.s H q.i 9.w.d 9.b m H n P.+ /.G p.p.u b w.f e r a b S g > M f H M ,X%Xd a D f n f #XO.",
"0XNXw.f m 7.B d 7.m i s f B a.d T f H {.S V.;.c w.B n e.n q.f 9.e.u e M l b e L I f i b b v a l 0 Y F <Xh.0 *X*Xy g.fXH B 7.5XO.",
"[ { m.y d m f 0.q.n B.<XH G T d m f T y w U i s m F f s a.d w.d f b H k v v G M v w.m b b w.d B w.m U `.b.y.(.J.Z.*X[.H b 7.` ( ",
"[ } :.XXN.a f w.d v U 2X&Xf.b 8.f 0.B 5 r.5 s H n u f a.F f a.B H p m d w.i k d w.n f w.d 9.w.n q.i B p ^.y.C.p.E 1X+ m d f ` ( ",
"MXrXp.sXB.f m b j.P.G s yXb.d f w.d m T ~ A R x B.K.i x m w.f f m # m B b K.,XL.y 9.w.d f f f d n w.U I h.s T H a j.g f m w.5X$.",
"cXNXE.J s.I V f U.sXs.u R.i.v I m I d P -.| ~ f.3XzXL.B n n f f w.w.m p j.3XSX3Xj.H B f a.H H f B B f M 5 b w k t 6 Y m B d ;X@.",
"MXqXD.0 c.s M f v y.A.+ A.l h n p m I R &.| ~ <XzXxXAXH f r.p 8.n f d s SX .   .DXD n w.p y w.H i 8.y e.0.f 8.f T M p w.n 9.-X+.",
"qXeXh u 1 b f 8.m n 6 G g a T f 7.q.b 8.Y L.f.0 2XlX= w.f B H B 9.f 9.M jX .  4XAX* w.d m r.q.f I 9.H N B Y f H F 8.f m 7.F -X%.",
"bXqXf d i q.n d f 9.b b 7.p I m f H B q.n x.& q A.5.~.m 7.m b f f I B r.H 3XFX3Xs f 7.w.d d 9.p f m m w.f I f m m.d 8.I M w.+...",
"nXNXd U M F b a.v m m.p w.r.d .X<X@ B 9.w.w v b l.n.$ w.w.m a.f 9.p p q.i /.].f.f m f f w.B m f f p f 9.m d m b m f m f U y :X..",
"nXmXH sXC.B w.8.w.0.n 8.b B i u.~.v.b p 7.w M m.s + a b B m y m f U fXy.l.z.p x b f H f m m m m f 9.f d f f f s n f n a.<XP.$...",
"nXwXn.K.a.t 8.f d w.t f w.G Y.`.y.Q.B.n y [.[.u Q ,XC.q f d w.w.f I XX3.E.p.s w w.f f f f m m m B m b m f f y  XoXD d m `.~.:X..",
"6X8XB.q b f p B f U oXF y G %X[.p !.0 n d $XiX>.T.uXH.4 p w.e.y 8.b u k.^.:.I.U.d f 9.m m w.f d d p f I m m u  X&X:.f M m p.O...",
") ] q M I v.C.t s.].2Xy.F.M.:.f 0 C.8 I m.H x.!.Q.3.h.w u I f m.f F I p z.b.oXOXd m v a m m f 9.f 9.f p w.y S.j.;.E.a.b v 5 / ^ ",
"5X9Xp r.f &X,X* '.dX* j.fX X5 7 M 6 C 9.p 0 f.,.k.n.5 M m.m s m f w.N 8.n.`.d.p T k > > l B m d e.b f f w.p +X[.y.E.s P F.T $.X.",
"cXtXp 8.q.D 1X(.p.x.j.gXj.f m P d f m 0.b H./.!.4.6.P.< l T 8.7.I n w.# H.z.6 j S > 1 1 > l I m d 9.f f r.d F.1.G D.4 H dXK.$.$.",
"nXwXp I f f b.n.f.3.U ^.d.b b n m f m p H 1XyX# T.jXK.< b 7.9.B n m p y.}.I , > 2 1 1 2 1 s B d m m M f p 7.k k s < J hXP.# 7X+.",
"MXeXm B 8.b D.y.m.K.9 ^.w v w.H B d m.f y E L k L K 0 1 M w.d m w.f 9.y y s b z j z 1 1 e y m C m f m.i w.8.a B b m m._.J z.5XO.",
"mXqXf B w.n p s a y b s w d f B f b x 8.H b 7 s b 5 7 v b w.f f 9.d w.m a d I s b p p 0 ,XI.y y 8.w.m 9.B B m F d 8.f /.w D.$...",
"qXNXf B m m 0 b G 7 T < w.f 7.v j.(.f n F 8.t.p 7.w.7.8.d m a.H 9.b f B m b f w.H f F {.<Xg.v.[.v m B n w.y f p w.m m.H w f $.O.",
"cXBXp U i B 7.w.I b m a.v 8.# C.%X&XW Y.H f P B p B f f w.f 9.b m m m m f f w.w.f C y.yXv.* OX+Xb f p b m.S.p.M f T b O T t $...",
"cXnXd.P I m p 8.w.f f p S.d.t Y.dXi >.dXZ.n I H T B f f B f p m f m f 9.f f m n f n 8./.P z.g.u f.s a.f e +X(.a.p w.q.9.f d ;X..",
"qXrXC.q y 7.b w.8.7.I L.gXC.y.H.n.@ Q.p f a.n 9.f f 7.f f 9.8.m f w.p b w.w.d m f i H v.e i.7.s A.O a I s.@ z.z.b i 8.9.m 9.$.o.",
"] *.+ Y w.8.m b I x M.gXZ.* ,XyXM.0 P.q P.e 7 f f f n m b m m f p f m m f H f f T f m O M z z s g e.f m b.u B.:.6 T f B b H ` ( ",
"] { f f D f n f 8.b 9.).a.K.c.S 9 v 5 b 6 k R 8.f d m f w.f f w.8.m m i B f m N F 9.x B H I B p f H m f 9.f q l w.F P 7.n D ' ( ",
"tXZX8.q.d B.b q.B 9.m.R.y v.y.s Z.z v f y T f m f m f 9.f m f f m f B f p F m m r.9.9.p m m 8.w.N w.m i w.M oX].i |.dXN.N T 7X*.",
"MXmXx q.i p I d u f f 0 w 0 w s r L I 0.H M p 8.m w.f m f f f m f 7.B m +XF.f u N y m f b i w.b f n d 7.f d g.H.k.C.$Xp d E.>X@.",
"MXeXn m.2XS.s  X,X8.B.,XZ.h M l 7 m v * <XF.b f f f m f f m f m 7.f f p _.C.U p.0 m n d m 7.s A.&XT y H I n d S.<.0 (.O F.:.:X@.",
"MXrXf F [.`.w Y.%X5 D.].s.p b F.OXt n %X1XV.F.U.f d m f m f 9.f v B w.T @ P M s k w.H oXM.a K.1X'.D +Xm.T f b y.f k D z m.w -XO.",
"nXmXs f p a.I p * 0 V.< F p b W.*XY.s.yXs.L.&X~.f f f m m f m f m B m p # k k 0 T d y.2X%Xu.XX$X@ ].1Xu.d f f a k B r I 4 k -X..",
"cXCX6 d w.5 y 5 h G > f M m.7.a P.hXJ R.& &XY.y f f m f m f f f 9.p 9.9.a.f m.9.f 8.f F yXJ.s.3.g.hXu.I 8.d f m p B m I p m -XX.",
"qXqXm B b m C R f f m 8.m B q.m d.3.i R.I <.l.M m 9.m f f m f f m 0.B b m f B d m f m b Q.s.f.E.K E.0.b f m B H @ r.n 9.B 9.$...",
"nXNXB w.m b b a.m q.w.m m m d p i.K.9 I.q v.D r y.b w.n 8.f y.T w.m f 9.w.f f 9.n n 9.p F.# d.h.+  X9 b 7.d f m 9.9.B f R i :X..",
"6X9Xy I B n B 9.f H m w.f H f m d 6 s q u h V oX,X+ H I f w.i m f f 9.m f m d w.f f m f y e M r s 0 b b m w.m m b f @ n m T $.X.",
"/ ] f n t # i B 8.I b i w.B m m B v B w f k w h.&X&XD I m B 9.n f m m d f 9.f m 7.f m P w T v b b V m m B d f D n h.1Xd.n H X . ",
"6X9Xd 9.c.1XY.a b B T H # y n 8.H b d w.s ].U.t K.{.P p m m f f w.9.f m m f m f p w.v m e.m B 9.B w.f 0.d b XXU.t K.jXi.k /.$.O.",
"nXwXn 8.g.gXjXL.a f d y ,X%Xh.n f f w.d b OX'.d s.b.7 f 8.m H f w.9.f f f f m f b B m y d n B s b @ 9.9.d m `.[.:.f.yXs..X*X5X$.",
"mXtXm f i >.dX3Xj.8.9.Y.FXlXY.a n f v d 8.B u.f b B.4 f p m 9.m d m w.f d f f f w.s u.v.v.s.f m w.f f n w.d y z.x.b Q.e dXL.-X@.",
"cX0Xw.I B # ,.uX1X0 J FXkX$Xi.d F L.L.M.8.v 7 a b 4 m.m w.m y w.d m 9.m m m m H 8.y.'.gXgX'.p q.m m p I b w.b N.d.w F.q v.b -X@.",
"bXwXd I n f k.).k.H T.FXkX_.p.D ].jXpXm.f R I n I B m b m B H f w.9.d m m.m.I f n N.~.6.6.2.h.f f I B.F f m 9.k q G 6 y 9 l $.X.",
"eXnXn d w.f n.5.l.v.lXkX{.y.p '.pX6.b.d.s w.d K b w.# 8.m f I b B d y.b g.gX1.M B q H Q.Q.G 0 B b j.aXv.b 8.7.m f m w.m 7.M -XX.",
"qXmXf f v f b.4.,.M.6.6.i.i [.aX).H.S < b e.2 - Z T e.f t.f Z - 3 H w.f ~._.gX,.9.q u E.E.u 6 w.v.uX_.K.B.b b e.f f v p q.9.$...",
"nXNXi a.m I c.).p.w ~.R.O s.(.$Xz.q 2 2 n w.3 : ; % Y r.P 3 ; : ; p 8.s e 4._.5.d.4 D )./.F 4 d.~.iX4.u b 9.B m m G m F b d -X..",
"bXwX8.9.r.f 7.E.^.i.U W.0 v.5.x.q 1 1 z n w.L ; &.=XJ 7.D =XA ; S dXa.V 1 4.3./.d.b k D :.k v f.5.3.Q.> V f t.p f T a.sXG.H -XO.",
"[ *.G m.n d H u ,.R., P C.& W r 1 1 z f f 8.m.q Q ].c.i d $XL.< H uX9.H %XQ.p.p.k.N.v z k v N.k.i.,.Q.%XU p 9.w.m a.7.yX@ u.` ( ",
"] { f w.q.7.f 6 b J q z d.w z q z z T I f d f e.b p k.G.7.R.i.m.G.3.y.Z.*X*X,.i.n.>.p.b k p.k.n.i.,.uX%XE f f f q.f m.K 0 V.` ( ",
"qXeXf v w.i f |.0 q H T 5 b f 9.m f f m.H m B.n f t.k./.y.c.p.n.k.p.j.V z 1X(.).k.k.D.H F D.l.k.).(.*Xr k w.f u 9.m v < M z ;X=.",
"MXCXp I m f m m w.9.i 8.7.M m I 9.p 9.v f m b 7.b d.^.4.a.v E.,.v n p m m $ b.H.!.k.N.S.S.N.k.Q.H.P.o B H 7.B r.f f m C.7.n :X+.",
"nXwX8.m B p H H e.n r.8.p b w.f n m m m m m m m f s :.E.6 l K.y.d B f m T b 4 , ,.`.f.u 0 s.`.,.o 6 b I m f f 8.f p W jXZ.F #X+.",
"nXtXs w.d D &XoXu @ b p a.f f 8.m f 9.f f f f f b T i 5 v B 5 s d w.m f f m I I y.y.i f m p 7.f b I m m f f f f B A.gXc.p 1X;X@.",
"vXrXfXW s ,X%X* U.<XT m y.m f f m f f f m f f f w.w.B v f a.b T m m m f f f f p B w.w.f f w.m n m.w.m m f m f f v l._.f n.~.$.X.",
"eXqX'.&Xs.(.A. X&XY.s m 7.f m f f m f f f w.m w.f 7.f f p f m p f f f f f 7.f f 9.m w.m f m f w.f m f 9.m f m H p w.~.w R.d #XX.",
"qXmXp iXh.>.l.`._.# m w.m m B f f m f w.f m f m m f f f B m m f f f m m f m m w.8.p f m m f p 7.8.8.9.f m f f f f H D l F z #X..",
"VXmX9.R.y x.s.g.z.k f i v w.b w.f m m f f f f f m d w.B p f m w.f f f m w.m d m b m.b m b m m.I f f f f f f m m 9.s r M 7 P $.O.",
"5X8Xa.c.0 M.P H M.6 m.f m f m 9.m 9.9.b m w.w.f f f f f 7.8.f f 9.m f f m.f f w.m B f w.f f f m w.f m 9.m m f m 8.w.B f B f $.X.",
") _ b + Y j a 0 q I f m I H 8.d f f f p 9.m.m.9.b f f m b w.b 9.f m m m f f f d.d.7.9.9.0.m.9.f m m m m f m n m m H d w.7.7.^ ^ "
};
