/* XPM */
static char *TEXTURE1CLEAR1662692823[] = {
/* columns rows colors chars-per-pixel */
"64 64 235 2 ",
"   c #001D1E",
".  c #00211C",
"X  c #011D24",
"o  c #031F2A",
"O  c #032325",
"+  c #05252B",
"@  c #09262C",
"#  c #06292D",
"$  c #0A292D",
"%  c #062A25",
"&  c #15352E",
"*  c #0B2632",
"=  c #072A31",
"-  c #0B2B32",
";  c #062630",
":  c #122F35",
">  c #132F3A",
",  c #0C3135",
"<  c #0E3439",
"1  c #0E3A3D",
"2  c #133235",
"3  c #13343A",
"4  c #18353A",
"5  c #143B3D",
"6  c #193E3E",
"7  c #183E34",
"8  c #0D2F2F",
"9  c #16433E",
"0  c #23413D",
"q  c #0D3D43",
"w  c #153E42",
"e  c #193E44",
"r  c #153B45",
"t  c #164144",
"y  c #194145",
"u  c #1A4449",
"i  c #16494A",
"p  c #1C4B4C",
"a  c #174847",
"s  c #1A504C",
"d  c #1B4E50",
"f  c #1D5454",
"g  c #1D5A56",
"h  c #1B5759",
"j  c #1D5C5B",
"k  c #17585A",
"l  c #0F4142",
"z  c #224442",
"x  c #224E4C",
"c  c #274C46",
"v  c #2B544C",
"b  c #28544B",
"n  c #214D51",
"m  c #225555",
"M  c #225C56",
"N  c #245658",
"B  c #235E5C",
"V  c #295B5D",
"C  c #2D5851",
"Z  c #345B53",
"A  c #365653",
"S  c #31544D",
"D  c #1F605B",
"F  c #296356",
"G  c #24615D",
"H  c #29635D",
"J  c #286559",
"K  c #356553",
"L  c #3E6759",
"P  c #396857",
"I  c #3A715C",
"U  c #1D5E60",
"Y  c #245E61",
"T  c #295D62",
"R  c #1F6764",
"E  c #256262",
"W  c #2A6362",
"Q  c #2D6A63",
"!  c #2D6B6A",
"~  c #266967",
"^  c #346E63",
"/  c #3B6A68",
"(  c #367164",
")  c #3B7364",
"_  c #3C7669",
"`  c #337473",
"'  c #3C737B",
"]  c #3B7A78",
"[  c #306A71",
"{  c #42755D",
"}  c #43785E",
"|  c #426E5F",
" . c #466C65",
".. c #437A66",
"X. c #4A7C66",
"o. c #437C6C",
"O. c #487868",
"+. c #537D6D",
"@. c #447D71",
"#. c #44787A",
"$. c #557B74",
"%. c #45806C",
"&. c #4B8368",
"*. c #548B6D",
"=. c #53866B",
"-. c #5C936E",
";. c #4E8573",
":. c #488377",
">. c #518474",
",. c #568D74",
"<. c #5A8F74",
"1. c #508679",
"2. c #52897A",
"3. c #5B8B79",
"4. c #5C9375",
"5. c #5D947A",
"6. c #599578",
"7. c #648A7A",
"8. c #619375",
"9. c #629A76",
"0. c #61957C",
"q. c #639A7B",
"w. c #699C7C",
"e. c #699D77",
"r. c #628F6E",
"t. c #6CA37D",
"y. c #63A07F",
"u. c #73AA7E",
"i. c #7BB27E",
"p. c #81B37E",
"a. c #3D7280",
"s. c #467481",
"d. c #3B8483",
"f. c #418383",
"g. c #458B8B",
"h. c #4A8A88",
"j. c #558889",
"k. c #49908F",
"l. c #5A9486",
"z. c #4C9594",
"x. c #4D9A96",
"c. c #4C959B",
"v. c #4C9A9A",
"b. c #479496",
"n. c #529B9A",
"m. c #529898",
"M. c #4B8F90",
"N. c #658D85",
"B. c #619583",
"V. c #6B9383",
"C. c #639A82",
"Z. c #6C9D82",
"A. c #65978A",
"S. c #729C86",
"D. c #729993",
"F. c #56A296",
"G. c #6DA283",
"H. c #66A388",
"J. c #74AB82",
"K. c #76A989",
"L. c #7DB384",
"P. c #7EB589",
"I. c #7FB885",
"U. c #6AA996",
"Y. c #78A795",
"T. c #76B69B",
"R. c #519BA1",
"E. c #5DA5A4",
"W. c #6EB5A1",
"Q. c #78BBA6",
"!. c #6DADA5",
"~. c #81B586",
"^. c #81B885",
"/. c #82B58A",
"(. c #85BA8B",
"). c #88BB8D",
"_. c #84B594",
"`. c #85B892",
"'. c #8CBD93",
"]. c #88B799",
"[. c #87AF99",
"{. c #88BAA8",
"}. c #95BDA9",
"|. c #8DB2B0",
" X c #8EC293",
".X c #8BC69B",
"XX c #92C49B",
"oX c #94C799",
"OX c #90C28F",
"+X c #81C5AC",
"@X c #89C8AB",
"#X c #93C4A4",
"$X c #9BCBA4",
"%X c #93C3AB",
"&X c #9BC9A9",
"*X c #8BCDB6",
"=X c #84C9B3",
"-X c #9BC8B2",
";X c #92D5B8",
":X c #9FD0B0",
">X c #8ED0B4",
",X c #A1CCAC",
"<X c #A3D1AD",
"1X c #A5D3B3",
"2X c #ACD6BC",
"3X c #ADDABB",
"4X c #A9D8B5",
"5X c #B1DCBD",
"6X c #A2CEB3",
"7X c #B3E1BC",
"8X c #98C6C7",
"9X c #AEDAC0",
"0X c #A9D4C1",
"qX c #B3DDC2",
"wX c #B5DEC9",
"eX c #B7DEDA",
"rX c #AAEAC7",
"tX c #B5E2C4",
"yX c #BAE3C6",
"uX c #BAE3C9",
"iX c #BAE8CC",
"pX c #BAFACC",
"aX c #BCE6D4",
"sX c #B9FFDB",
"dX c #BBE3E2",
"fX c #C3EED6",
"gX c #C6F5D9",
"hX c #C1E7CE",
"jX c #CCF7E7",
"kX c #DBFFF6",
"lX c #DDFEFC",
"zX c #D7F8F8",
"xX c #CCF4E7",
"cX c #E4FDFD",
"vX c #EAFEFE",
/* pixels */
"$ # # # # ; , r q t y w - # * * $ $ $ $ $ @ $ @ $ $ $ $ $ @ $ $ $ @ $ @ @ $ $ $ 1 w u y t y 3 = # * # # $ @ @ $ $ $ $ $ $ * $ $ ",
"$ @ @ = 3 e e w t t y w 3 - @ + # # @ $ $ $ @ @ $ @ $ @ $ @ # @ @ # $ $ $ $ $ $ 5 w e w w y t r - , ; + @ $ = $ $ $ $ $ @ @ $ $ ",
"- @ # 3 e e t y t y t y w r , ; ; # # $ @ $ # @ @ # # @ $ # @ # @ @ $ $ @ # # - y t e t y y w t e u 5 @ $ $ @ $ $ * $ $ $ @ $ $ ",
"$ + = e u w w t t w e y y t w 5 - - - # # $ @ $ $ $ $ $ @ $ $ $ @ $ $ # # # , 5 u w t y t w y u w y 5 $ $ $ $ = $ $ @ @ $ $ $ @ ",
"+ 2 6 e e w t t y t t y t t t t y e e - $ * @ @ $ $ $ $ @ $ @ $ @ $ @ $ $ , r w w w y w t y y y t t r - + @ $ # $ $ $ $ $ # # # ",
"3 w y y e w w t y y y w w t t t t w e , # = @ $ @ # # $ $ # $ # $ $ # = 3 w y y t y t y w w t w t u t 3 $ @ $ $ @ @ $ = # + $ * ",
"y w 6 y e w t y w w w w y y t y t t u 3 # # @ $ $ # @ @ $ # @ @ $ = + , e y t t w y t w y w y y t y u 6 , $ # $ @ @ $ $ # $ , 6 ",
"9 y y w w y y e t y t w e e w y t w u w # + @ $ $ $ $ $ @ $ $ $ $ $ # 3 u t w t y y w w u w w t e w w y a 3 $ $ * @ @ $ $ - r z ",
"w u y t w e e y t t y y w y t t t e e r , # @ $ @ @ @ @ @ @ $ $ $ @ @ 5 y y a w y w y u w w t e t t t t t y r @ $ + 3 5 a t t t ",
"t y w w y y w e e y e w y t 9 9 t e u e w = # @ % @ $ @ # @ @ $ + = 3 e e w e e e w a N f t w e e w t w y u 5 @ @ $ 3 w t t y w ",
"y w t y y w t w e e y e w w t t t t e t a w , # $ $ $ # # ; # $ , r y t t t e t w u m G B i t r u e e t w t 5 $ $ # e w t t y y ",
"y w y y w y y t w t t t w w r e w t u e w t t 6 5 - $ $ , t e e w e y w w t w a a m G G G M m t e e w a l a w # @ # e y t w t w ",
"e t y w t y t t t y q i W T e u d r e t w t t e 6 - + + , y y y e e t t i d p N g B B B W G B g i r t f D G n # $ + e w t w t w ",
"y y w w y t t t e e d ` m.m.g.M./ i r e t t t e t $ # # < y t w e r w p B E G E D E B B B V B E i r t N D E m # $ + 6 t t t y w ",
"w e t e t t t p x p ` v.v.v.m.f.V l w u t t e y w # @ @ 3 y w t e t a d B E G j j G G B B Y G M i w u N D E m # @ + e y t t y w ",
"e u y t t w a V G ~ g.R.b.v.g.j T i u w r e e e y $ @ @ - y w w a N Y Y Y B E G V B G E G M B V u w e N G E m # $ + e t t t t e ",
"r e 9 y w 9 l E B h.n.b.n.z.! V E M d t t w w w 9 $ $ + < d d V B G B B G B B G B B B B G B B B t e w g G E g ; # + e y w y z r ",
"u w t 5 t a B j ` z.z.n.z.! B M B E B m p a y u t $ + + w W B B Y B G G B G B Y G E B G G G B B i r t g G G g @ # # y t w w e t ",
"w 5 t t p V Y ! v.n.m.x.a.D j G B W B E V p w w 5 * * + t W Y B G B G B B G G B B B B B B B Y B a e t g G E h @ + # 5 a a t w t ",
"N V m V V W ~ g.c.b.m.f.~ D G G B B M E G f t r 2 $ * @ w G B G G B j E B B B G G B B B B Y B Y t e t N G G m @ # # 3 f g g N N ",
"~ V V E G D g.n.v.n.g.~ g M G G B E U D B f t e , @ @ + t E G G B B G B B G B B B B G Y Y B Y B t w t g E E m $ $ + , m Y B V G ",
"T G B G j ` n.b.v.g.` j :.h.j G M G G G B p t e < # @ @ t E j B G B G B B B G B Y B B G G G B B t e t g E U h * @ + , B E G G G ",
"G G B M ~ z.v.v.m.` j g #.M.M Y E B M Y E d w y < # + # t G D G B G B E B E G B E G B j M M G G i e w g G G g @ $ @ , B G B B E ",
"E B V ~ f.m.v.v.d.E B G M B B Y G G B H V p w y 5 @ @ # t W Y B G B B B B G B B B B j G G J ^ ( d e t N E G h $ @ @ 1 W D G B G ",
"E j j :.c.c.c.d.E Y B G B Y G G B G W m V n w t e * @ % t U U E E j G j G j G B U ~ j M %.*.5.C a w a m G G N # + # a E B H M W ",
"D Q l.E.n.z.h.G M g G M Y E g G V M j f d p e w w = @ + a M ~ M Y U E B E B B B g B W _ 5.9.5. .5 w w N Q J b # @ # a E G B j B ",
"&.C.*X*X=XW.2...o.o.o.J h W B G E E E f a u u t 9 * $ + 5 K %...G E B Y B ~ H F H F _ 6.5.4.q.I r 5 9 ;.2.( x @ $ + a E B Y E E ",
"H.Q.@X+X*XT.6.0.5.5.5._ M B E Y Y U G G a p w t 9 $ * + a o.5.4.,.;.G G M _ 6.,.,.6.5.0.8.6.0.) r e 9 ;.5.6.I + @ + a G V E D ` ",
"Q.@X@X=XT.6.4.<.9.4.4.<.( M g g N B D J s x t t 9 $ * + v 0.4.-.5.;.M B M %.0.4.4.4.4.4.4.8.0.I r w 5 &.4.y.=.@ # % 9 Q Y h R M.",
"@X=X*X+X6.-.4.5.4.4.4.0.3.o.o.o.o.@.H G p p r e 9 * * o C q.4.4.4.2.B Y B @.0.5.4.4.4.8.4.4.0...5 w 6 >.4.4.+.@ @ % F C._ Y d.n.",
";X=X+XH.-.9.-.5.4.4.4.4.5.5.5.9.0.B.( M p i t e 5 - = X v q.6.9.9.2.G Y G %.5.5.4.5.4.4.4.4.4.*.a y 6 +.9.9.+.= * O K H.I ! v.R.",
";X*XU.6.4.r.8.5.6.<.4.4.4.4.4.-.<.5.^ M d r u e 5 - * + v 9.6.6.4.;.G D M %.9.4.6.6.6.5.4.4.0.=.a w 5 >.9.X.K - * O K 6.o.h.c.n.",
";XT.6.4.4.4.4.4.4.4.4.4.4.4.5.4.4.3.( G f w y w e % @ O A C.4.5.-.2.G B B %.5.4.4.6.5.5.4.4.0.I w u 5 =.q.O.Z * : O K y.l.b.x.v.",
"+X5.4.4.4.4.4.6.5.4.5.4.5.4.4.4.4.l.( j B y e t e : @ o Z =.4.5.*.@.G M M %.4.4.-.4.4.4.4.4.0.} < y y O.q.X. .4 o O K U.!.c.b.x.",
"G.,.4.4.4.4.4.4.<.4.4.5.<.4.5.4.8.,.^ j Y t 5 y e @ @ o c P 5.5.*.] G G j %.9.5.4.4.6.4.4.4.0.>.x q 9 X.0.0.V.0 + + P T.E.c.x.x.",
"&.4.8.4.4.4.8.4.5.4.4.4.4.5.4.4.5.X.^ D B t e t 9 $ + + S K 4.5.%.( B G F o.5.5.4.4.3.4.4.*.4.5.a t w +.w.q.c O $ O #.+XE.c.v.x.",
"I q.0.4.4.-.6.6.4.5.4.4.5.4.4.4.5...Q G N t y t t @ @ $ 6 K 8.<.,.^ Y B g o.4.5.5.5.5.4.9.e.t.t.c r w +.4.&.7 * = O 1.Q.z.c.c.v.",
"&.8.4.4.4.4.4.5.4.4.4.4.<.4.4.5.5.%.H D Y p t t y # $ @ 7 { e.w.,.H h E B %.4.4.5.5.3.4.t.I.(.L.x r r ,.w.=.7 @ @ X 2.+Xx.R.z.n.",
"5.6.4.4.4.4.4.<.<.4.5.4.5.4.4.4.5.;.G j E n 6 y 6 $ @ X S w./.`.K.( B E j o.4.9.6.4.4.q.J.^.~.u.x w t q.(.J.v + * X ;.;Xn.b.z.z.",
"4.6.6.-.4.4.0.5.4.5.4.4.4.4.6.4.5.2.G D E x w t e @ = # v G.$X&XP.I B Y j :.9.9.9.9.q.K.^.I.L.L.x 1 9 q.^.'.v X $ O 6.sXQ.z.m.] ",
"3.5.4.4.6.4.4.5.4.5.<.-.0.5.4.4.C...j D E n w t 6 = $ o Z ).XXoXI.-.U G j @.0.L.I.L.I.^.L.~.~.i.x w 9 5.(.(.} + $ X 0.pXW.v.f.G ",
"-.4.9.t.t.q.4.4.<.4.4.-.<.6.4.4.<.) G E G p e t e = @ + L ).~.L.(.t.B D E ( &.(.L.I.L.~.~.L.~.L.x 3 q K /.L.B.* $ X 7.pXQ.g.~ H ",
"J.K.L.I.(.L.K.J.9.q.t.t.3.5.4.4.4...J j E p e t e - @ O L ).~.~.I.t.B G k _ &.P.L.I.I.I.L.L.I.L.p u 6 b e..XY.* + X 8.pXQ.! h W ",
"(.P.L.i.I.I.I.P.P.P.P.J.4.0.t.q.w.0.I k E p r t 6 = $ X L ).L.~.~.t.B G D _ =.u.L.L.I.L.P./.L.L.p 6 w Z Y.rXT.@ @ X V.pXU.k E H ",
").~.L.L.L.~.L./.~./.P.u.4.Z.P.P.`.P._ g W n r y 6 = $ o L ).P.L.(.t.V G D ^ *.u.L./.P.L.I.L.'.<XC 3 5 / tXrXU.@ @ X K.gX:.k G Q ",
").L.L.L.L.P.L.P.i.P./.J.<.C.P.I.I.`.%.g Y p e t y = @ X L )./.P.~.G.B D D G ;.G./.L.L.~.L.K.<X3Xc w 5 s.lXjXQ.* @ X [.jX2.j j Q ",
"(.I.L.I.L.~.L./.p./.L.u.<.w.L.^.L.`...j M t e t 6 = @ o L ).L.L./.].Y g E F .._.6XXX).L.`.$XtX2Xv r w D.cXcX}.O X X D.gXB.h B G ",
"(.L.~.~.L.~.L.L.~.L.J.t.<.w.~.L.p.`...D B t w t 6 = + O  . XI.'.1X#XY G U j ;.:XqX5X4X/.#XtX5X2Xv q T 8XcXcX|.O @ o N.hXB.h G g ",
"'.4XXX~.~.i.~./.'.,X[.K.4.t.`.].#X'.O.U M a e t t $ * O +. X X9XuX#XN G B M q.qX3X5X,X).oXwXwX2Xx n s.dXcXxX{.o + X 7.fXl.f F f ",
"4X7X5X'.i.I.~.}.5X5X,XC.*.K.5X4X7X<Xo.h E p w 6 w - + X +.oX XtXtX#XB G B I Z.qX5X4X}.~.$XqXqX2Xn [ #.dXcXeXQ.* + O 7.fXA.h D f ",
"uXqX9X5XoX/.4XwX5X5XqXG.,.G.tXqXtX7X1.k G x r y 6 8 $ o  .OX).5XtX%XB M j _ G.qXqX5XXX~.$X5XqX2X/ ' ' dXcXxXT.; $ X N.fXl.h G M ",
"yXqXwX6XXXL.4X9X5X5XtX].4.0.:XqX3XyX2.k W p w y w $ @ o L (.).2XtX%XV G j @.S.5X5XqX1X~.oX<XwXwXj.s.' dXcXlX{.O @ O 7.hXA.f g ! ",
"yXqXwX,X~.~.$XwXtXqXqX&X*.9.6XtXqXtX;.k E x e w y @ + o | '.).6XuX@XY M j @.Z.5XqXqX3X~.).#XhXxXj.s.' dXcXlX{.+ * @ & K.A.Y g ! ",
"yXqXqX5X).L.4XqX9X9XtX#X=.K.uXwXqXtX2.j Y p w u t $ $ X +.oX~.&XuX#XY G j o.Z.7XqXqX5X~./.6XxXlXh.a.' eXvXkXY.+ $ O c }.A.h j W ",
"yX5XqXuXXX(.5X5XqX5XtX{.*.Y.tXwXqXtX2.k E x w w 6 8 + X +. X).2XwX@XN G B o.S.5X5XqX3X~.}.fXzXzXj.a.' eXvXjX0.O @ O V.gXl.f B ! ",
"hXuX}.qX,X/.#XwXqXqXtX#X-.K.-XqXqXyX2.h E p r u t $ $ X +. X'.tXwX#XT M G O.S.5XyXqX4X~.,XxXlXzXj.a.' dXcXhXV.+ + X 7.iXA.f M W ",
",XqX-XK.<X'.'.7.qX5XiX&X<.Y.Y.}.iXuX1.g M f t e 5 @ @ o O.oXOXtXqX%Xs g D o.G.:X-X5X5X/.qXkXcXzXj.a.s.8XgXtXZ.O * . 7.gXl.a G D ",
"}.3.|. .r.S.wXV.,XhX[.Z.| Z  .A _.0X3.t t n e e u @ @ o $.$XXXuXhX}.p h J ..Y.&XV.qX$X'.hX|.cXzXs./ s.N.}.fXV.+ *   7.fXN.t M s ",
"A . O O   7 S z z S @ O O O $ O . 0 7 8 - - - 5 5 % @ o  .K.K.-XY.c @ , 8 0 3.}.$.[.+.,XcX|.|.|.> < e 6 z A 0 % * @ 0 Z 9 ; < , ",
"O @ @ * @ . O + o o + @ - $ @ $ @ + + 8 $ # $ # # @ $ @ $ % . + o X 8 @ # + + * : %   c  .A * o @ + O @ O o O @ @ $ O   + $ # # ",
"$ # + * $ @ @ @ # # : $ $ @ * $ - ; @ @ % $ $ @ + @ @ = @ O $ # $ @ @ $ 8 # $ O + : O o X X @ @ + @ 8 @ @ - # $ # + $ # = * $ $ ",
"@ $ - @ $ $ $ $ * @ $ + $ $ @ @ @ @ * $ $ + # $ $ $ $ @ $ $ @ $ $ + $ $ # $ # $ * + $ $ $ @ $ @ @ $ % @ * $ ; @ + # - + $ $ @ @ ",
"@ $ O $ + $ $ @ + $ @ @ $ + $ 8 $ @ $ = @ $ $ + @ @ $ @ @ @ + @ $ $ % @ * @ $ $ $ $ $ * @ $ @ @ @ $ $ @ @ $ @ @ $ # $ : % @ @ $ ",
"2 $ 2 2 2 : 2 : : 8 , 8 2 2 - : : : : : 2 : : : 2 : , 2 : : 4 & 3 4 2 2 4 > 3 2 2 4 : 2 4 2 2 2 4 > > 3 2 2 2 3 2 4 : 2 2 4 2 4 "
};
