/* XPM */
static char *TEXTURE4CLEAR1662692510[] = {
/* columns rows colors chars-per-pixel */
"64 64 247 2 ",
"   c #1C3535",
".  c #1D3936",
"X  c #1D363A",
"o  c #1E393B",
"O  c #163538",
"+  c #15342F",
"@  c #373A2E",
"#  c #233635",
"$  c #233C36",
"%  c #2B3B35",
"&  c #22363C",
"*  c #223B3C",
"=  c #2B3C3B",
"-  c #29363A",
";  c #333D33",
":  c #3A3E33",
">  c #313F3C",
",  c #232D37",
"<  c #38462F",
"1  c #234135",
"2  c #2C4536",
"3  c #2B4A35",
"4  c #25423C",
"5  c #2A453D",
"6  c #274A3A",
"7  c #2B4A3C",
"8  c #274837",
"9  c #334435",
"0  c #3B4133",
"q  c #3C4B35",
"w  c #34443C",
"e  c #3B443C",
"r  c #334C3D",
"t  c #3C4B3C",
"y  c #374835",
"u  c #3B513E",
"i  c #3B553A",
"p  c #2B4E33",
"a  c #454E2E",
"s  c #444C34",
"d  c #4A4D34",
"f  c #434D3B",
"g  c #494D3B",
"h  c #474737",
"j  c #455133",
"k  c #4A5134",
"l  c #44513D",
"z  c #4A533C",
"x  c #475B3A",
"c  c #54583A",
"v  c #48572C",
"b  c #4B613C",
"n  c #5B673C",
"m  c #5F723A",
"M  c #626D3C",
"N  c #6C6E3E",
"B  c #64733E",
"V  c #6B753D",
"C  c #65793B",
"Z  c #6B7A3D",
"A  c #6A7437",
"S  c #757A3D",
"D  c #76793C",
"F  c #1C3842",
"G  c #253B42",
"H  c #293D45",
"J  c #2C3E4A",
"K  c #243A45",
"L  c #323F45",
"P  c #2F3E51",
"I  c #254241",
"U  c #2B4443",
"Y  c #2D4A43",
"T  c #2D424C",
"R  c #2E4A4B",
"E  c #27454B",
"W  c #344443",
"Q  c #3D4443",
"!  c #334C44",
"~  c #3C4B43",
"^  c #34434A",
"/  c #3A464B",
"(  c #334D4A",
")  c #3C4D4A",
"_  c #325145",
"`  c #3A5344",
"'  c #34524C",
"]  c #3B534C",
"[  c #3D5A4D",
"{  c #3B5846",
"}  c #2E4550",
"|  c #334E52",
" . c #364C56",
".. c #355353",
"X. c #3A5553",
"o. c #3C5A54",
"O. c #3B565B",
"+. c #3D5C5C",
"@. c #37595A",
"#. c #2F5047",
"$. c #3C615B",
"%. c #3E5C61",
"&. c #3D5563",
"*. c #3E6161",
"=. c #434D42",
"-. c #41494B",
";. c #445344",
":. c #4A5443",
">. c #455944",
",. c #44534B",
"<. c #4B554A",
"1. c #445A4D",
"2. c #4B5A4D",
"3. c #4D5943",
"4. c #545649",
"5. c #555C4D",
"6. c #545A44",
"7. c #444B54",
"8. c #494C55",
"9. c #4B4D5A",
"0. c #454957",
"q. c #435454",
"w. c #4B5453",
"e. c #445B54",
"r. c #4B5C54",
"t. c #44545C",
"y. c #4B535B",
"u. c #435C5C",
"i. c #4A5C5C",
"p. c #535C53",
"a. c #555A56",
"s. c #4B6546",
"d. c #4D644C",
"f. c #4B6A4C",
"g. c #46614D",
"h. c #536544",
"j. c #546C45",
"k. c #5C6D44",
"l. c #54644D",
"z. c #5B654C",
"x. c #546B4C",
"c. c #5B6C4C",
"v. c #5A6640",
"b. c #5B7144",
"n. c #5C734C",
"m. c #577349",
"M. c #446254",
"N. c #4C6353",
"B. c #4E6A53",
"V. c #44615D",
"C. c #4C635C",
"Z. c #4C695B",
"A. c #47685F",
"S. c #536453",
"D. c #5A6553",
"F. c #546B53",
"G. c #5B6D52",
"H. c #52655B",
"J. c #5A645C",
"K. c #536A5B",
"L. c #5C6A5D",
"P. c #5E7254",
"I. c #5A705B",
"U. c #636E43",
"Y. c #626D4B",
"T. c #666C44",
"R. c #647344",
"E. c #6B7444",
"W. c #657A44",
"Q. c #6B7A43",
"!. c #64734B",
"~. c #6B754A",
"^. c #65794A",
"/. c #6B794C",
"(. c #737544",
"). c #747B44",
"_. c #7A7C44",
"`. c #737B4A",
"'. c #7B7C4A",
"]. c #78774A",
"[. c #626D53",
"{. c #666B5B",
"}. c #647352",
"|. c #677457",
" X c #777853",
".X c #435662",
"XX c #425D62",
"oX c #4A5C63",
"OX c #465667",
"+X c #515560",
"@X c #446262",
"#X c #4B6463",
"$X c #4C6964",
"%X c #4C6469",
"&X c #466769",
"*X c #536664",
"=X c #546B65",
"-X c #5B6C65",
";X c #536768",
":X c #566B69",
">X c #5B6D6B",
",X c #5A6668",
"<X c #5D7266",
"1X c #5D726D",
"2X c #57726B",
"3X c #5A7371",
"4X c #5E6D72",
"5X c #646D64",
"6X c #626F6B",
"7X c #6E6E62",
"8X c #637165",
"9X c #63736D",
"0X c #6C746D",
"qX c #6A7468",
"wX c #647673",
"eX c #6B7573",
"rX c #657A74",
"tX c #6B7974",
"yX c #6B7A7A",
"uX c #737C75",
"iX c #717D79",
"pX c #827C44",
"aX c #857F4E",
"sX c #847E54",
"dX c #7B823E",
"fX c #7C814B",
"gX c #768246",
"hX c #7E8253",
"jX c #7E805B",
"kX c #7B847D",
"lX c #748179",
"zX c #83824B",
"xX c #888747",
"cX c #858252",
"vX c #8C8555",
"bX c #8C8A5C",
"nX c #86855B",
"mX c #938B5B",
"MX c #93915C",
"NX c #8E905E",
"BX c #8B8761",
"VX c #978B65",
"CX c #989567",
"ZX c #808275",
"AX c #A29A6D",
"SX c #A1987B",
"DX c #879086",
/* pixels */
"7 4 o ! ' _ [ >.<XDXkX9XuXeX*X9X9XwX*XwX,Xo.[ e.c 4.9.*X2XlXDXlXrX1X>X:X2X2X3X*X=XDXkX7X0XK.V.1X5XA.%X@X*XC.A.&X0XlX1X#X@XM.' _ ",
"7 . * Y 5 4 ' =X9XlX*X;XtX=XO.9XtX1X#X4X*XX.] i.c 4.w.#X1XkXDXlX:X*X#X#X#X#X*XV.C.9XqX{.5X#Xu.#X*Xe.@XXXV.@.e.3XtXwX:Xu.+.o.Y 7 ",
"Y o   = I * U r 1.9X%XV.$X@X@X1Xl.<.i.:X9X1XN.=.c 4.a.-XlXkXkXwX#Xi.u.V.V.@X@XV.u.#X9X-X$X@X+.+.u.+.@.$.%.%.*XeX=X:X2Xu.@.R 6 Y ",
"I & & U 4 o 4 7 e.tX%Xo.C.@XXXC.f ~ #X3X>X-X2.z c 3.a.5XkXuXtX=X#Xu.V.@XXX+.@X@X@X@X*XC.$.$.*.%.%.u.V.$X%.;XyX0XV.e.V...' Y U 5 ",
"I X & #   F * _ e.-Xr.i.5X:X%.1.=.q.>X*X1.<.` s 3.:.5.{.kXuXrX>X$X#X@X@XV.V.*.@X@Xu.u.u.$.@.u.u.@X1XeX6XwX3Xe.8X$X+...5 5 4 4 $ ",
"I X   . X o $ ~ K.5X*X*X5X-Xu.{ h ) %X1.=.q.1.y ;.~ ,.D.uXuXtX>X:X*X$X@X@X@X@X@X@Xi.=X>X$Xu.;X*X:X9XuXtXeXe.2 7 ..+.o.Y 1 $ * 4 ",
"  .   Y I O ^ 5X9XK.-X1X5X6XC.>.g W X.1.=.( i.! ] ` 1.S.7XlXrX4X;X;X$X#X@X#X@XV.XX#XwXiXrX:XwXeXeXrX,X=X>X/ 8 . ..+.! 5 $ 4 5 Y ",
"o U 5 1 I +.C.qX-X2.C.A.N.1Xi.=.d ~ X.,.=.L &.K ] _ { <.a.uXyXtX:X;X*X#X#X#X#XoX@X-XeXeXyXwXeX0XeX>XoXV.2X` U F R X.5 7 2 7 Y U ",
"1 ' 5 + ..@.w.8X=XV.+.+.*.u.,.d s w W ~ ,.X.( # ! ' { 1.e.rXrXuX3X$X#X%X*X#X@X@X:XeXeXuX3X#X-XeXeX=X@X+.X.Y 7 8 o 8 Y ( Y 6 7 I ",
"| +...U R R 1.8XA.e.@X$.+.e.=.s s ~ ^ -.<.,.U X r _ ! ;.2.:XyXlX9X$X#X$X*XV.A.&XwXeX0XtX2Xu.i.wX9X%X+.+.o.Y 7 $ U 5 Y ' Y 8 ' @.",
"R u.+.X.o._ r Z.u.! o.V.XX1.f d j =.W W :.g % F ; W W >.,.q.yXkX6X#X&X%X#X+.u.$XtXeXeXeX:X+.#XrXrX;X+.V.' Y U o . 6 ' o.' 7 o.@X",
"3 r Y Y 7 7 ' u.u.7 Y @.u.1.f s r l e e f g 9 F > ( w =.=.q.rXuX6X#X@XXX%X=X:X1XeXeXtX>X@Xu.@X2X>X#X+.+.Y 5 I o 4 7 Y R u.o.$...",
"p 6 ' @.! ` i.oX..7 7 R X.e.l y 5 t f =.t 9 = X # Y W =.w.q.*X>X>XV.+.#X:X1XwXeXeXeX9XC.O.XXu.V.oX+.+.+.Y 5 4 o Y I #.#.( 4 #.R ",
"#...o.o.[ *X1X*X..Y 7 I ( ) r 9 6 y f t 2 4 $ X $ = 5 t ;.X.u.3X1X$X@X>X6XqXqXtX6XeX9XA.+.%.+.$.u.u.*.o.Y 5 5 * 5 1 ' ' 1 O Y 7 ",
"( @.#.7 q.:X=XA.' 7 7 7 Y $ 5 7 7 7 r w 7 U G * I I Y t ,.t.oX>X>X#X>X5Xa.{.9XwXeXyX1X$XV.%.%.u.u.*.$.' 7 7 U 7 1 O I 4 + o I 6 ",
"W r 8 _ u.%X+.+._ 7 7 7 . O 4 7 3 Y Y 7 8 4 o = X 4 w ~ =.i.oX6XtX>XtX5Xg S.rXrXeXeX*X+.+.*.@X+.+.%.*.' Y 7 7 6 . F I 4 1 * o p ",
"Y 1 ! <XI.C.N.) Y 7 7 7 o X $ 7 G 4 7 Y G F * $ & & 5 t ~ ,X,X5XtX0Xp.-Xz -.>X3XwXwX:XV.*.@X+.$.$.u.] ! 7 7 7 Y . 1 5 Y 7 8 7 8 ",
"7 r ) #Xi.*X2X1.I 7 7 7 o O o 2 o 4 7 U * X * $ F O   e Q a.;X5XiX6X6.S.q Q >Xu.*X:Xi.@.%.XX+.$.$.u.' U 6 6 7 7 7 4 o 4 Y 7 7 7 ",
"Y ' ' V.X.! e.[ #.7 7 5 o X o . O $ 5 4 X F o * X o # w e i.;Xi.i.~ e ) f ) t.@X$X:Xu.+.*.+.e.V.u.$.' Y Y 7 7 7 Y 4   o Y 7 7 ! ",
"' A.o.7 Y [ o.Y o.Y 6 4 o o     o $ I $ X X * # O o # : : y.;XX./ e =.w q f ! +.#X%Xu.@X+.e.,.e.$.o.Y Y 7 6 7 9 U $   * Y Y Y o.",
"@.' ' 6 Y _ #.Y _ Y Y *   X X X X * G * X & # o X X # e : L @X@./ w e / l Q ) &.$.XX+.+.+.1.l q.@X' 7 7 7 7 t y * X X X 4 U ' ' ",
"! 5 @.@.Y Y 7 7 5 5 U $ X X X X X X * X X X X o & & & e : % +.| / l ;.W 0 g W } $.%.u.@Xu.<.s ) @.Y y r r y u q 5   X * 4 ' o.@.",
"1 . #.| Y I 7 7 7 Y $     X F X X X o X X X X * # & = ; 0 > oX} L t f L t f H  .$.%.@X+.XX;.s / +.! t l y f =.f 4 X   X $ ! ' U ",
"  $ Y 6 7 6 7 7 7 5   X X X X & X X X X & X X & % & % ; 0 % u. .W =.h 7.f s e  .$.%.M.+.@Xl k -...Y q j f f f 0 $ X X X   4 Y 4 ",
"4 $ I Y 7 Y 8 o 5 4 . X o X     X X X X X   o   # # ; = 0 @ XX| L t h Q f f >  .XX@X$.%.i.f a e P W a d g q   = U   X X X X G o ",
"Y I I 4 4 7 4 . o o X X X o .   X X X X X & X X G & % > 0 @ O.) f g f ^ f f t / t.+.$.$.q.s d =.5 -.g g g u * # # X X X X X O 4 ",
"I * * . 4 U 4 o X X X X   * 4   X X X X X X X X G & % = : @ ( / f d k / s g g ~ / O.@X@Xu.f d d t W g g g 9 o X X X X X o o + 5 ",
"$   X   # U * X X X X . . U W $ X X o X X X X G & - - = @ 0 T Q f a k =.s d d ~ U O.o.` <.z k f / U =.g g % O X X X F X   * 5 5 ",
"* o X X X o # X o X o $ o U Y $   X X X o & X K * H = = ; : Y Q g d s Q s d s e | XXr.s a d l ~ T U =.g s $ X X & X X o   $ ! Y ",
"# X X X X X X X X X 4 U $ 5 Y 5 o X X X G K & G K = = = ; 0 ^ Q d d g ^ f g g ~ = ( <.:.g s j t P U =.d 9 X F . X & X X X   I * ",
"o X X F X   X X X . I Y 8 7 7 7 o X X X K E K H = G = G ; 0 | ,.g d g ^ f s :.q.) w.D.z.6.a q e W H W f 2 X X   K K X X X X X & ",
". X X F X X o X o . 5 Y 8 Y 7 5 X   X * U ^ K J G # $ 4 ; 0 @.i.<.s d Q k s >.+.4.D.D.p.L.h.c p.f ~ J w $ F X & T T G   X G G X ",
"X X X X o X X X O $ U . 4 ! 7 5 5 # X H L J ^ H 4 5 $ = > 9 =.:.u 7 ] ` t =.r.>.a f l.G.R.M n x v >.q.K O F K K T T H & H T T X ",
"X O X * X X &   X G U   . 5 7 7 I * X K J K H K U U = G W U w r _ ] t.w.:.h =.l h n W.W.M M R.h.}.H.u.E X = T H J T J G H J J & ",
"& G G X   H J H ^ & =   $ 4 7 r 4   X T J K & & ^ H G X K ! ( / oXe.>.f c 6.z M M Y.b n.E.Z k.) 1.( K G   G T T T ^ T H T T J H ",
"X H J X X W / 0.0., # $ + 4 7 2 o o X X X X U J 2   * $ U ( ) =._ x.k.M C /.T.A !.x 2 g.G.d.` 7 Y G X J H U T T T T T T T T T T ",
"G J T G X & - 9.0.L / E o 5 Y 4 + R ..R T O.u.U 4   Y ] ] ] ,.=.[ x.^.V C m.x j.F.! 1 _ @X*.Y p 7 4 o T J P T T T T T T T T T T ",
"T J ^ G X X & / 0.y.oXX. .( ' X.R %.XX.Xy.%Xo.o o.X.V.oXw.4.5.5.K.D.l.P.m.` 5 _ { 7 r Y ' 7 6 7 6 7 I T P T K H T T T T T T T T ",
"T T P H I } ) 8.9.9.9.0.i.q.q.oXoXy.t.8.y.t.W   #Xi.i.w.w.4.z.k.k.x.A.oXe.( U 3 Y 5 3 6 7 6 5 Y 7 U 7 U E H & & T T T T J T T T ",
"T P J ^ @..X.Xy.8.8.y.7.y.y.t.t.t.0.8.8.9.y.X.U e.r.5.4.Y.Y.~.Q.}.c.B.B.j.i U Y 8 Y 7 r 6 7 Y Y Y Y Y 8 Y 4   & K J J J K J P T ",
"O. .| X.S.oXXX+.u.X.u.OXOXOX9.8.7.9.a.Y.z.K.u.C.4.5.4.k.Y.Y.T.~.C !.Y.Y.b.i 6 6 3 Y U 7 6 6 7 9 8 7 Y 6 Y *     F O G o   H J P ",
"oX@XC.F.x.S.C.f.i.OX+X,.w.0.8.z.Y.p.M C x.x.S.F.Y.!.T.Y.Y.Y.!.Q.^.D.[.^.x 2 Y Y r #.o.o.' ..@.! 8 7 U $ I 5 o X o X X K X X ( o.",
"f.F.!.Q.!.G.x.I.e.t.7.q.y.9.w.c.!.D.R.!.P.W.m.z.k.z.D.z.Y.R.Y.b.b.c.!.!.>.! ( ( $.@XoXu.V.@.*.o.! 4     o X   X X # X X X O ..XX",
"Z.c.k.R.b.f.u.t.e.O.t..X.Xt.t.@XZ.x.c.Z.e.C.r.z.g.D.G.G.!.Y.!.R.!.!./.Q.n s.S.b.$.O.i.Z.1.Y @.o.Y * o o X F X X X & H   Y | O.oX",
"W./.E.k.oX@Xf.B.A.@X@X%.%.*.@X%.A.B.u.u.M.C.H.l.D.x.n.k.k.R.!.R.Y.`.'.]. X`./.E.Z.N.G.}.h.7 ( Y * # X X X X X X O o ....+.V.1.I.",
"l.c.D.c.b.m.B.V.D.F.N.e.C.F.B.M.u.x.G.n.x.C.^.W.!.k.c.R.R.Y.k.[.`.BXsXvXVX XT.E.!.!.C R.s.r * & * .   X o   * E E E u.K.F.F.n.m.",
"D.n.n.P.D.H.i.OX|.'.Q.F.K.j.b.P.Y.Q.E.`.R.R.Q.`.).B b.!.c.c.!.].hXBXVXVX X(.dX).Q.E.Q.R.q U * * o 4 I I R ( +.o.@Xe.l.R.Q.`./.n ",
"b.m.F.*X!.fXW.!.(.S gX^.f.D.G.m {.xXxXpX'.fX'._.D ).E.k.m `.gXgXgXxXVXVXVXfX`.E.V E.U.k.i Y 8 3 5 I Y I ' ' M.$Xx.}.E.(.).).E.R.",
"h.j./.`.S D aXmXvXxXpX_.]._.).fXfX).V ).fX_.D D '.].E.].nXpXvXBXBXSXnXaXxXS R.F.x.C.@Xo.1 7 Y I 6 _ 7 i b n b./.E.E.E.fX].).].(.",
" XnXsXvXAXnXcXbX'.'.fX].gX).E.E.`.E.E./.~.E.T.~.A D hXvXCXbX(.CXVX].N ).V !.E.R.x.@X*.o.r 7 ' ..V.M.f.P.S.D.!.R.W.R.Q.).fX).).].",
"VXAXCX(.BXCX~.R.).).Q.V R.E.W.E.E.M B B U.m R.!.Q.gXM B E.U.E.Q./.U./.).V aX'.Z C R.k.x.F.N.A.+.oXu.e.K.x.!.^.R.B R.Q.V V V zXnX",
"V '.V V `.M V W.W.R.R.W.W.R.W.R.E.B C B m W.E.^.b.R.U.^.`.`.(.).gX`.fX_.)._.E./.E.Q.T.Y.D.G.F.j.n.n.z.!.E.Q.).E.E.).fXfXMXNXvXV ",
").(.fXfX_.).).].Q.Q.R.E.R.R.R.E.R.R.B B B R.R.!. XBXjXjX~.(.cX].fX).D Z B R.E.~.!.!.R.E.Q.E.Q.Z R.W.C V (._.zXxXAXvXaX_.bX'.N '.",
"mX].'.fXfX).E.V R.R.B E.E.R.R.R.M R.U.k.k.k.k.R. XT./. XU.k.R.^.]. X].).B ^.!.k.B.C.Z.^.W.F.I.z.!.R.E.`.E.].cXcXCXVXCXCXcXcXCXnX",
"hXE.E.).Q.R.Q.^.E.R.!.^.R.Y.Y.R.R.k.k.k.m.k.k.U.j.k.j.j.k.n.n.k.).Q.E.E.k.F.Z.u.b.f.c.x.B.+.u.A.V ).gXfX).`.`.).(.(.hX(.`.nXhX/.",
"!.R.E.E.B E.!.Y.Y./.R.!.!.k.k.j.f.s.r.S.r.d.x.c.x.x.x.c.k.c cX XQ.R.Q.I.e.u.Z.x.C.D.G.e.OXXXr.k.~. XR.M E.E.B B m R.R.Q.Q.E.E.^.",
"V !.F.N.B.H.N.C.m.Z.N.}.n l.d.f.i.e.g.d.l.N.x.d.N.r.f.s.N.u.|.R.~.R.m.M.$.+.M.C.+.u.N.p.J.p.S.d.Z.#XN.b.R.}./._.MX'.)._.).R.!.!.",
"F.#X%.OXF.G.Y.k.h.S.x.!.l.l.F.e.f.s.h.h.f.d.g.r.r.i.+.+.+.e.G.U.$X%XOXoXC.H.u..XXXM.M.C.J.J.S.r.R.Y.k.Z S '.sXmXvXfXR.E.R.F.S.T.",
"g.V.d.k.C Z W.n.M Q.E.!.B U.z.c.c.x.d.r.p.r.r.e.@.+..XC.x.B.i.e.N.H.H.D.l.Z.u.XXXXu.u.r.5.c.G.I.R.R.^._.xXCXmXpXD E.E.Q.n.f.f.l.",
"^.|.^.~.c.F.n.B.G.G.S.N.N.B.F.s.r.e.r.r.e.e.e.i.M.+.t.V.g.V.u.g.L.N.S.r.i.OXu.B.x.b.!.n.k.Z E.~._.(.'._._.]./.Q.Q.R.c.F.H.oXV.M.",
"k.G.N.i.H.C.G.R.!.x.B.N.B.V.Z.s.e.r.r.g.g.M.e.u.u.oXV.K.e.u.r.S.@Xu.N.n.k.c.!.R.~.E.`.~.Q.fX).].zX_.zXpXpX'.).Q.!.c.N.$.%.V.F.m.",
"e.Z.N.u.F.F.z.E.C R.^.^.R.D.r.h.x.x.B.M.w.t.oX@XM.x.E.^.S.r.C.oXK.N.Z.$XC.N.R.C E.(.).).).).A A A ).zXV N R.!.x.K.i.V.@X%.C.F.C.",
"g.B.S.N.F.V.u.Z.F.i.l.l.y.y.q.7.1.d.5.p.r.H.G.R.Y.{.D.D.G.k.T.!.L.p.M.+.M.Z.n.!.R.E.E.R.n.D.D.}.S _.)./.P.f.$.$.M.b.n.F.M.i..X+.",
"&XOXF.k.Z.@XM.V.t.t.y.y.9.y.r.J.D.n.W.Q.Y.}.!.m 6.a.0.4.!.D.w.5.V.&XoX%XI.^.Q./././.Q.W.}.#XA.n././.E.^./.R.R.}.|.}.F.V.*.C.C.#X"
};
