/* XPM */
static char *NORTH1662694591[] = {
/* columns rows colors chars-per-pixel */
"64 64 247 2 ",
"   c #1C3535",
".  c #1D3936",
"X  c #1D363A",
"o  c #1E393B",
"O  c #163537",
"+  c #15342F",
"@  c #223C36",
"#  c #2B3B36",
"$  c #22363C",
"%  c #223B3C",
"&  c #2A3D3C",
"*  c #253738",
"=  c #343C35",
"-  c #373B38",
";  c #2D3830",
":  c #7C1D14",
">  c #792A13",
",  c #37412E",
"<  c #234135",
"1  c #2B4A34",
"2  c #25423C",
"3  c #2A453D",
"4  c #2B4A3C",
"5  c #294838",
"6  c #3C4B35",
"7  c #35453C",
"8  c #3A443C",
"9  c #334B3C",
"0  c #3B4C3D",
"q  c #344534",
"w  c #3C533A",
"e  c #294E32",
"r  c #444D2E",
"t  c #444C34",
"y  c #4B4D34",
"u  c #434C3B",
"i  c #4A4D3B",
"p  c #464637",
"a  c #43513C",
"s  c #49523D",
"d  c #495435",
"f  c #54593B",
"g  c #48572C",
"h  c #5B6A3C",
"j  c #546A3D",
"k  c #666C3D",
"l  c #63733E",
"z  c #6B753D",
"x  c #6A7A3C",
"c  c #74773C",
"v  c #1C3742",
"b  c #253B42",
"n  c #293D44",
"m  c #2C3E4A",
"M  c #243A45",
"N  c #343F44",
"B  c #2F3E51",
"V  c #254241",
"C  c #2B4443",
"Z  c #2D4B43",
"A  c #2D424C",
"S  c #2E4B4B",
"D  c #27454B",
"F  c #334443",
"G  c #334C44",
"H  c #3C4C43",
"J  c #34444B",
"K  c #324D4A",
"L  c #3C4C4B",
"P  c #3B4445",
"I  c #335145",
"U  c #3C5344",
"Y  c #34524C",
"T  c #3B544C",
"R  c #3D5A48",
"E  c #2B4451",
"W  c #384C55",
"Q  c #355353",
"!  c #3B5553",
"~  c #3C5A54",
"^  c #3B555C",
"/  c #3D5C5C",
"(  c #375957",
")  c #2F5046",
"_  c #3C615C",
"`  c #3D5C62",
"'  c #395A64",
"]  c #3F6162",
"[  c #424D43",
"{  c #454B49",
"}  c #435244",
"|  c #44544C",
" . c #4A554B",
".. c #44594D",
"X. c #495847",
"o. c #545949",
"O. c #4A4C55",
"+. c #464B57",
"@. c #435555",
"#. c #455C54",
"$. c #4B5C53",
"%. c #44535B",
"&. c #4B535A",
"*. c #435C5C",
"=. c #4A5D5C",
"-. c #4C5553",
";. c #535B53",
":. c #5A4F4B",
">. c #4D654C",
",. c #4C6A4D",
"<. c #49634A",
"1. c #546645",
"2. c #546B45",
"3. c #5C6D45",
"4. c #53644C",
"5. c #5C654B",
"6. c #546B4C",
"7. c #5B6C4C",
"8. c #5A6743",
"9. c #5C7343",
"0. c #5C724B",
"q. c #577248",
"w. c #456254",
"e. c #4B6353",
"r. c #4E6A52",
"t. c #44615C",
"y. c #4C635C",
"u. c #4B695B",
"i. c #536454",
"p. c #5A6553",
"a. c #536B54",
"s. c #5B6D52",
"d. c #53655B",
"f. c #59635B",
"g. c #556B5C",
"h. c #5E7353",
"j. c #587256",
"k. c #636E43",
"l. c #626D4B",
"z. c #6A6E48",
"x. c #647444",
"c. c #6B7544",
"v. c #657A44",
"b. c #6C7A43",
"n. c #64734A",
"m. c #6B754A",
"M. c #64794C",
"N. c #6C7A4C",
"B. c #727544",
"V. c #747B44",
"C. c #7B7C44",
"Z. c #747B4A",
"A. c #7A7C4A",
"S. c #75754D",
"D. c #646A5A",
"F. c #637353",
"G. c #6D7754",
"H. c #767652",
"J. c #425D62",
"K. c #4A5C62",
"L. c #465664",
"P. c #515962",
"I. c #446263",
"U. c #4B6462",
"Y. c #4C6767",
"T. c #526463",
"R. c #546A65",
"E. c #5B6C64",
"W. c #556B6A",
"Q. c #5A6D6B",
"!. c #566666",
"~. c #5D736C",
"^. c #5B7164",
"/. c #5B7273",
"(. c #5C6A73",
"). c #646C67",
"_. c #63736D",
"`. c #6A746D",
"'. c #657366",
"]. c #647573",
"[. c #6A7572",
"{. c #6B7A74",
"}. c #687977",
"|. c #747D78",
" X c #6F746F",
".X c #91321C",
"XX c #A33111",
"oX c #983724",
"OX c #823521",
"+X c #8A1317",
"@X c #964C37",
"#X c #91462F",
"$X c #B4532D",
"%X c #B25231",
"&X c #A6552A",
"*X c #BD6C3B",
"=X c #837D49",
"-X c #887B53",
";X c #B56A4D",
":X c #B7674A",
">X c #B96C53",
",X c #B86854",
"<X c #BA745C",
"1X c #B9795B",
"2X c #B66E47",
"3X c #B87D63",
"4X c #AF7D64",
"5X c #B65E48",
"6X c #C37157",
"7X c #C37961",
"8X c #7C814C",
"9X c #788147",
"0X c #7C8352",
"qX c #78857E",
"wX c #868449",
"eX c #858253",
"rX c #898759",
"tX c #95895B",
"yX c #91925E",
"uX c #8D8A61",
"iX c #978B65",
"pX c #999567",
"aX c #82897E",
"sX c #BA8265",
"dX c #B98569",
"fX c #A29A6D",
"gX c #B28871",
"hX c #BC815F",
"jX c #C88968",
"kX c #D49368",
"lX c #DCAC7C",
"zX c #D4A87A",
"xX c #DDB17A",
"cX c #D3A779",
"vX c #E2AB7B",
"bX c #E3B379",
"nX c #E1A86D",
"mX c #7A8A82",
"MX c #8F9088",
"NX c #CDAB85",
"BX c #CEA787",
"VX c #D3A984",
"CX c #D7A885",
"ZX c #DEB283",
"AX c #CFAA90",
"SX c #E2B284",
"DX c #E8AF84",
/* pixels */
".X&XMXMXMXMX'.^ _ mX|.D.D.$.~ !.g.#./ J.=.#.~ ~ _.[.!.` ( ~ Z 2 4 o X Z K S Y U ~.MXqX^. X[.K.~._.~.T.].!.! R @.f o.$.I.R._.> : ",
"kXnX-X_.MXMX~.] ~ ~. X).).U.*.I.R.*.I.` / *.*./.[.{.W.*.t.~ Z C 3 . % C 3 3 Y ^.].{.U.Y.{.W./ _.{.E.Y.(.T.R U =.f o.{ K.W.qX3X<X",
"VXZXqX/.qXMXU.( / y._.E.U.t./ *.*.` / / ' I.W.[.R.R.W.*.~ ) 3 9 Z .   & 2 < 3 9 | _.Y.] Y.I.I.~.;...*.!.Q.~.$.} f :. .).}.|.jX<X",
"VXCXqX/.MXMX]./ I.I.W.U._ ] ` I.` *.t.U.J.Y.}.`.t.=.t.Q Q S 3 3 Z % * 3 V o C 4 #.].Y.( y.I.` u.u H R.(.~.^. .a :.o.;.).|.mXjX3X",
"BXSX[.].|.|.R.*.` *.=.*./ ( _ *.J.Q.[._.}.Q...'.Y.t.Q 2 % 2 2 % b X $ % O v % I #.R.$.=.'.R.I.~ i | /.R. ...[ t X.a ;.).|.mX3X<X",
"VXSX].].].).~ ] I.*.U.Q.Y.t.R.W.!.].|.{.].#.3 4 ( ` / Z 2 % % b V X   o X v o U R.'.f.f.D.R.*...i L I.#.H | #.q } } X.;. XmX3X,X",
"VXlX].I.T.|.I.' / U.].|.].~.].[.[.{.W.R.Q.G 2 . ( *.K 3 < 3 3 G o % . Z b X K '.~.g.E.~.'.E.=.X.u F ! | } J *.H U U w i.).qXsX:X",
"VXSXQ.%.T.[.*.K._ W.[.].[.].`.`.[._.*.t.~.G 3 V S Q 3 5 < 1 1 C X C 2 < V *.=.'.E. .T.U.y.Q.=.u i H ! X.[ N ' b U I U  .;.}.4X,X",
"zXZX(.K.W.U.I./ R.].[.[.].I.W. X{.R.I.` ~ C 4 2 . 2 Z K Z e 3 b . T 4 + Q ( %.).R.t./ / I.*.} y u 8 N L | @.K * I I .. . ./.dX;X",
"zXZXY./ t._ ` K.].{.`.{.Q.*.y.[.`.I.*./ ~ Z 3 2 Z 3 Z Y Z 5 Y ( Q ( Q D Y I R '.u./ I._ / @.[ y t H F [  .} C o 9 U G U ..(.sX>X",
"%X2XT.` *.*.*.Y.{.[.[.[.W./ I.[.}.!./ t.Y Z C . . 3 Y Q Q 4 ~ I.G *.*.Q ~ 4 I e.t.) Q t.J...u y a u F P } y # v * G G U | +.@XoX",
"$X2XP.I.].].Q.~.[.[.{.Q.I./ I.~.Q.U./ ~ Z 3 2 o 2 Z ) ) ~ ~ _ ( 1 G G Z Z 4 K =.=.V I ( *.#.6 t 0 0 8 8 } u # v & H G 0 } +.@XoX",
"DXZX( I. X[.`.{.[.[.].u./ ` / t.J.*./ _ Z 3 % o 4 C Z ) ) V Y Z 4 2 Y ~ I I =.J.Q 5 4 S ( #.} 6 3 6 i [ 0 q # X & F F H  .K.3X7X",
"BXZXI.].D.`.`.`.[.{.~.U.*.*._ t.*.*.] ~ Z 3 C V 5 < Y Q < O D 4 ) Y ( ~ ~ g.~.R.~ Z 3 3 K I 9 q 5 9 u 0 9 2 @ * . 3 3 [ | ! dX7X",
"CXCX].`.i D.{.].[.{.~.Y.I.` / *./ ] _ Q Z 5 3 4 o . C 2 O o V e K ~ ) Z @.W.R.U.Y 3 4 Z 3 % 3 4 4 4 9 7 3 3 V $ % C F 0 } %.dX1X",
"VXbX{.g.d $.[.].[.{.R.~ / ] I.*.*._ ] Y Z 5 4 4 . o V < < v < 4 F 9 5 I =.U.` ~ I 3 Z 5 < O 2 5 1 V Z 3 1 2 v $ % @ K H } K.3X>X",
"zXDX4.f.s P (.].].].W.t.] I./ _ _ / T F 4 5 4 V < 2 C Z 3 5 3 5 Z 2 U ^.E.d.y.I Z 4 5 Z % O % 5 C < Z Z M v % @ . X C 8  .f.3X:X",
"VXCXX.f.t { !.I.R.W.=.( ' ` / _ t.*.Y Z 5 5 4 Z 4 % @ 2 Z 5 5 3 5 9 K U.=.U.~...V 5 4 3 o X % < o 2 5 3 % X % % . v @ 8 = =.3X>X",
"BXZXq T w 8 =.*.Y.W.*./ _ *.#.*./ t.Y Z Z Z 4 4 Z 2   o Z 4 5 I 4 Y T t.T Z #.R Y 4 3 3 o o X .   % 3 2 X X o % X   * 7 8 K.3X;X",
"zXDX0 - [ [ P ~ U.Y./ I.I.#.| #._ ~ Z 3 4 4 1 1 3 %   % C Z I ~ T t.~ 4 Z T / ) _ 4 3 2 o o X   X % 3 % X X % % O v   7 = { 3X>X",
"kXkXs F u 7 L ^ _ J./ t./ ..6 @.I.I 4 4 5 4 9 6 & . X o 2 Z I Q ( Q ) Z Z Y ) Z I Z Z % X     X o % & o X X % $ O $ ; = u - <X5X",
"XX$Xp C u [ F W _ / J.J.J.X.t +./ Z 9 9 9 9 0 u 2 X X o V I / ~ Z Z ~ ( ) V 5 4 3 5 3 % X X X X X X % X X X X $ o   @ 8 ; - > : ",
"jXkXt F u u C E _ *.I.*.J.} t P / G 0 t 6 u } a 2 X X $ @ Z K C 2 . Y Y Z 4 4 4 4 3 % .   X v X X X X X X $ X X @ $ * = p N 3X5X",
"VXxXw J p i 7 W _ J.*./ I.a t { Q Z 6 y u u u , @   X X   2 Z 2   . V 4 4 4 4 4 Z 2     $ X X $ X o v $ X X   % * n & = - * 3X7X",
"zXvX[ H [ H F W J.I._ / &.a d u A F r y i 0 @ & & o X X X X v . < . 2 3 3 Z 4 o 3 2   o X X X . X X X X X X .   * * # - = = dX7X",
"NXlX8 7 u i 8 8 %.' _ _ @.t t [ n L s y i 0 @   o X X X X X . 2 Z C C 2 < Z < O % %   X X o .   X X   X X X X X % o * # , - 3X<X",
"VXlX[ H y y y u G / ] I.=.i g t G H i i i q X v X X X X o o + C C % o . . Z C . X X X X   2 3   X X X X o X X X X . % = = - 3X>X",
"cXvXH 8 t y [ P C ^ ~ U X.s y u G & [ i y @ X X X X X X   & 2 3 % . X   o C % X X X X X   C C @ X X o X X X X M % M * = = - 4X:X",
"zXlXF F s y u 7 W J. .t t y a H B F [ d t @ o X X X X X   % G Z % X X   . % . X X X o % @ C Z 2   X X X X $ X b $ $ $ 7 , , sX:X",
"VXCXS C i y i [ 3 J  .o.p r t 0 B m H t , X o   X M   $ X   b 2 % X v X X X X X X O b Z @ 3 4 3 o X X X b b M b n n & & ; , 3X:X",
"CXnXL F t y } ..L -.p.l.o.d r F P N F u q v O   M b X X X   o X O X X M X   X X X . Z Z 2 4 4 4 o X X X M m b M & $ & & , P 3X6X",
"&X6X- { u y } /  .p.p.;.f.1.f o.u G m 8 @ v v $ A m b X $ b % X   $ v X X   o X . . 3 Z 5 4 3 3 X   X % C A n m & % % % q - @X.X",
"%X*X[ U [ [ #.R y a y.q.k.k h g g X.^ M O % b M A A m $ n m m X   %   X o X X X O % C * 2 Z Z 5 3 o X m m B J b 3 n & & N - #XoX",
"zXZX=.#.i i i u r j v.9Xh k n.2.h.d.*.A v $ m m A A m M m m m M X X X $ X X o     $ C   @ 3 4 4 Z %   b m M m $ C C 2 b * G dX7X",
"AXVXa a f f f k k 3.s 0.z x 2.T ..K b b   b A A C A A m m C A n $ % b X   n C n N M &   . 3 1 1 % o X A m $ $ $ F C . & 3 Z dX<X",
"CXDXk.h c.V.7.z n.s q <.j.>.U 5 Z b X m b C J m A m A A J A A A X m A X X A J +.+.* $ $   < F 3 . o o o   $ C m 3   % % 3 G sX7X",
"BXbXz V.z 9.} 1.d.9 < I I.] ) e 5 3 o A m B A A A A m A A E E m M m J $ $ X n +.+.N B C o C C 3 + S Q A S ^ %.C 2 O Y @.L L 1X>X",
"VXcX7.F.2.<.4 I R 4 Z Z Y Z 5 4 4 4 2 E A m m M J A E E A A B J A m J n     M P +.&.&.! ! K K ~ S ` K.*.L.Y./   ~ Y *.=.=.#.sX;X",
"cXZXT.*.w.Z 4 < Z 1 1 4 3 4 5 C 3 Z C D D C $ $ A A B J m A A A A m B m V E P +.+.&.&.&.=.@.! K.K.L.&.O.&.@.J O y.y.$.&.$.$.1X;X",
"AXZX~ u.,.9 3 S 5 Z 4 4 1 Z Z G Z 4 4 5 Z & O $ M m m n M m m A E A m J ^ L.+.P.O.+.+.+.&.%.&.+.%.+.+.O.O.=.@.n $.-.;.O. .d.1X;X",
"cXxX3.c.x.H F 1 1 Z C 9 5 3 4 1 5 1 Z 3 Z 2 O . X O % %   m m A ^ ^ E @.e.T.J.( / ^ *.L.L.L.L.O.+.O.;.7.6.d.t.t.:.;.o.4.l.k.3X:X",
"kXcXn.m.a 1 3 Z 4 S ! ~ ) Q ~ Z 5 3 3 % C 2 o O X   X M X   K / J.t.y.g.6.i.y.,.=.K.L. .{ +.O.5.l.;.k z 7.s.a.i.z.m.k N.m.m.3X,X",
".X&Xl.9.e 5 Z ) _ I.J.*.I.( ] ~ K 2     X o   o X $ X X X X Q I.,.a.9.b.n.a.a.j.@.+.@. .&.&.-.l.n.5.n.M.s.M.7.7.5.2.7.5.z.z > : ",
"jXnXz.k.j >.i.6.] / =.r.w.3 ~ ~ C 2 X X X v X X X M V   C E ^ J.d.7.k.x.3.a.t.%.*./ %.L.L.%.%.I.e.a.0.e.w.e.$.5.;.6.3.l.k.b.1X>X",
"CXbXx.m.9XM.G.m.y.e.7.F.<.3 K Z % o X O O X X X . . ( Q *.w.#.g.v.M.c.3.K.I.r.r.u.t.J.` *.J.J.' y.r.=.~ w.u.d.i.i.e.D.l.l.n.dX3X",
"BXDXuX-XuX0Xl 9.n.M.x.z j 9 M X %   X X $   & S D D *.g.a.6.0.7.4.7.5.s.q.0.r.J.a.a.w.=.u.a.r.w.t.6.a.h.a.d.9.b.N.h.6.j b.l sX6X",
"cXSXiXiXH.B.C.8Xb.z b.n.6 3 V o . 3 Z 2 S K ( *.J.#.4.x.b.Z.S.j p.h.M.s.a.f.=.L.G.A.M.a.d.6.9.h.9.x V.9Xx.l.b.Z.z z l k.7.7.gX1X",
"AXnXtXgXiX9XV.c.z m.k.3.w Z 5 1 3 C V 2 T S t.u.6.F.x.B.V.V.b.c.9.q.r.d.m.V.b.x.B.C.c v.6.e.h.3.D.wXwXA.C.eXA.c C.x N.3.5.Z.3X:X",
"VXSXrXwX-Xc x.j.1.y.I.( < 4 Z C 4 Z 4 w j j k.m.c.c.B.A.A.V.V.B.2.1.N.V.C.c =XtXwXwX=XC.C.9XV.8X9XC.x V.8XV.c C.Z.B.B.B.eX0X3X;X",
"cXlXM.V.b.l b.9.r.y.J.~ 9 9 Y Q *.e.q.j.>.p.n.x.M.l c.Z.A.V.Z.B.H.rX-XtXfXeXrXuX=X9XA.A.Z.V.c.z B.m.m.m.m.k.c.m.x.V.=XtXiXrXsX;X",
"NXxXb.=XB.Z.=Xm.x x.3.6.r.$./ _ K.*.=.d.6.n.N.x.l z b.x z z eXeXiXfXpXB.yXuXc.k.Z.Z.z l x.b.x.c.l k c.l l l x.M.N.Z.z k Z.b.1X:X",
"VXbXC.c V.N.V.c.x.c.c.l.p.7.j.6.0.7.6.l.n.x b.b.c.Z.A.8XyXyXrXc.z Z.z x.Z.x.z m.x.x.v.b.x.n.m.x.b.x l l l l m.x.x.h x.Z.m.N.jX>X",
"$X*Xc z m.x.x v.n.M.c.b.b.c.b.x v.v.l x b.C.wXwXfXrX=X=XrX=Xl A.V.B.8XeXC.B.V.V.b.l v.x.x.l x.x.k.c.l l 3.k.x.n.G.uXH.0XS.S.#XoX",
"$X*XH.Z.m.c.n.a.a.#.d.n.v.s.s.7.x.m.c.Z.B.C.eXeXpXpXpXpX-XeXfXeXuXC.C.8X9XB.b.x b.x.z b.m.x.x.x.k l x.3.x.3.3.x.H.H.h.G.7.k.@X.X",
"lXbXN.l s.a.<.w.q.2.s.6.r./ ` y.z V.9X9XB.S.Z.V.k B.0Xb.Z.rXZ.Z.0XB.x.V.b.z b.M.c.c.x.M.m.k.k.x.x.9.2.0.3.3.3.k.q.6.2.3.7.0.jX7X",
"CXbXx.0.~ *.g.i.y.i.s.*.' J.$.3.c.H.k.k.c.v.l l l v.x.b.b.m.n.n.n.x.c.c.k.n.m.7.k.n.n.l.M.7.2.2.6.X.<.e.e.<.4.7.2.6.5.l.7.6.7X3X",
"BXxXg.u./ / t.d./ *.$.d.;.p.i.i.y.u.e.0.0.M.Z.A.yXV.B.C.c n.F.c.z l.s.u.,.y.e.y.q.y.e.F.1.4.4.,.*.=.<.e.>.i.4.,.4.i.r.w.w./ gX<X",
"CXZXy.$.p.d.*./ t.t.w.d.!.f.e.$.n.7.3.c.B.A.-XtXtX9Xc.M.n.a.;.x.r.I.` ` a.s.7.7.6.i.a.M.1.6.>.y.,.1.1.1.,.e.<.;.#./ ^ ^ t.w.hX6X",
"VXvXf.;.f.=.*.t.J.*.t.#.$.s.7.s.v.n.z V.rXpXtX=XC.b.m.N.0.6.,.6.,.y.4.3.x b.b.0.k.b.n.l.x.9.3.7.7.>.<.e.$.;.$...! ' %.K.a.e.1X,X",
"NXcXy.y.*.J.t.>.6.9.0.0.l x b.m.V.c C.wXC.V.c.N.l x.7.d.y.J._ w.n.D.M.m.3.i.q.a.0.7.4.e.e.,.e.,.<.#.#.$.#.#.#.*.w.*.*.$.w.~ dX;X",
"VXvXi.0.h 7.M.z c.n.b.c.b.8X9XA.wXC.C.=XC.C.b.b.M.7.,.*./ t.a.q.0.g.e.=.u.y.s.x.n.6.a.i.i.u.e.<.=.#.$.e.<.w.#.*.*.*.e.p.#.J.3X;X",
"BXSXU.u.e.e.7.v.c.B.C.C.V.b.z z z 9X9Xz k.x.n.q.i.*.t.t.^ y.a.y.w.u.w.*.j.a.6.c.z l M.x.x.p.;.o.6.2.,.w.%.&.J.I.=.s.9.F.>.u.sX:X",
"kXkXT.^ =.u.0.m.c.m.b.x.7.i.i.F.V.c V.M.F.,.w._ e.q.0.r.t.*.L.` #.i.a.i.a.y.%.g.e.=.e.p.&.%.%.^ #.e.;.$.=.e.n.x.3.F.o.l.6.j.;X>X",
"XX&X^ ' >.x.k 3.9.l.3.l s.*.#.4.l.x.l 3.n.h 3.s.6.p.4.~ ' *.#.J.] ` 4.2.w.' ~ ( ^ %.W +.+.+.| y.o.2.l l 5.l.7.h -.+.+. .7.o.> +X"
};
