/* XPM */
static char *WEST1662694591[] = {
/* columns rows colors chars-per-pixel */
"64 64 256 2 ",
"   c #000A1B",
".  c #02141C",
"X  c #08171C",
"o  c #18151E",
"O  c #03241D",
"+  c #053B1B",
"@  c #3B351F",
"#  c #050D27",
"$  c #031525",
"%  c #0A1425",
"&  c #021A25",
"*  c #0A1B25",
"=  c #03162A",
"-  c #0A152A",
";  c #031B2B",
":  c #0B1C2C",
">  c #131B26",
",  c #12152B",
"<  c #131B2C",
"1  c #1A1C2C",
"2  c #191626",
"3  c #031C32",
"4  c #0B1C32",
"5  c #081936",
"6  c #131B32",
"7  c #1A1C33",
"8  c #161A37",
"9  c #140D25",
"0  c #231B2E",
"q  c #251829",
"w  c #251C33",
"e  c #381530",
"r  c #032325",
"t  c #03232D",
"y  c #0B232D",
"u  c #022B2B",
"i  c #0A282A",
"p  c #14212E",
"a  c #1B222D",
"s  c #11272B",
"d  c #07372A",
"f  c #123729",
"g  c #032333",
"h  c #0A2333",
"j  c #032A35",
"k  c #0A2A35",
"l  c #04253A",
"z  c #0B253A",
"x  c #042B3C",
"c  c #0B2B3C",
"v  c #132333",
"b  c #1B2332",
"n  c #142B3A",
"m  c #172838",
"M  c #023334",
"N  c #0A3435",
"B  c #03323C",
"V  c #0A323C",
"C  c #033B3C",
"Z  c #0B3C3A",
"A  c #083B33",
"S  c #143538",
"D  c #27262B",
"F  c #35292C",
"G  c #232333",
"H  c #262836",
"J  c #382937",
"K  c #2D362F",
"L  c #2C091D",
"P  c #7C180C",
"I  c #78241B",
"U  c #520F2C",
"Y  c #670D2E",
"T  c #472E35",
"R  c #7A312F",
"E  c #06462B",
"W  c #084839",
"Q  c #144A39",
"!  c #0A563B",
"~  c #13583B",
"^  c #13452C",
"/  c #2C4838",
"(  c #12633C",
")  c #096D3B",
"_  c #376038",
"`  c #544C33",
"'  c #7A6427",
"]  c #76572B",
"[  c #052D42",
"{  c #0A2D42",
"}  c #072846",
"|  c #152C43",
" . c #043342",
".. c #0B3443",
"X. c #0A3944",
"o. c #073747",
"O. c #163645",
"+. c #073650",
"@. c #263946",
"#. c #383D49",
"$. c #071E40",
"%. c #0B4C43",
"&. c #084646",
"*. c #124B46",
"=. c #0C5344",
"-. c #0B5B47",
";. c #15584B",
":. c #165652",
">. c #0B5B52",
",. c #284857",
"<. c #36575B",
"1. c #284E4E",
"2. c #0B634D",
"3. c #036B4B",
"4. c #0B6B4E",
"5. c #076747",
"6. c #136D49",
"7. c #166948",
"8. c #047444",
"9. c #0D734A",
"0. c #087848",
"q. c #157849",
"w. c #0C6B53",
"e. c #086754",
"r. c #126553",
"t. c #097554",
"y. c #177A54",
"u. c #28744B",
"i. c #305365",
"p. c #346869",
"a. c #4B4D58",
"s. c #6A4F4A",
"d. c #495969",
"f. c #49696B",
"g. c #737174",
"h. c #786165",
"j. c #913015",
"k. c #91392A",
"l. c #A93411",
"z. c #A8501D",
"x. c #924D30",
"c. c #B3552C",
"v. c #8C6F35",
"b. c #B47532",
"n. c #AF3C51",
"m. c #853946",
"M. c #CA3747",
"N. c #E9384D",
"B. c #8E4352",
"V. c #B64F53",
"C. c #B36A4D",
"Z. c #B7694A",
"A. c #B66A52",
"S. c #B96953",
"D. c #B8785C",
"F. c #AC6D52",
"G. c #AE586C",
"H. c #847C7E",
"J. c #B57B63",
"K. c #B97865",
"L. c #B26F73",
"P. c #835363",
"I. c #C74858",
"U. c #CC525B",
"Y. c #EF4857",
"T. c #C17559",
"R. c #C46F5A",
"E. c #EF5569",
"W. c #CA746D",
"Q. c #EB6E76",
"!. c #058A3D",
"~. c #04854B",
"^. c #0A8949",
"/. c #13894B",
"(. c #039443",
"). c #0A9345",
"_. c #0C944C",
"`. c #039B4A",
"'. c #04974A",
"]. c #088A53",
"[. c #168858",
"{. c #0B9554",
"}. c #159458",
"|. c #1C914D",
" X c #288456",
".X c #05A64A",
"XX c #08B94D",
"oX c #0BA855",
"OX c #15AB57",
"+X c #0CB559",
"@X c #0CBC5B",
"#X c #07B757",
"$X c #15B75B",
"%X c #10B24D",
"&X c #368C72",
"*X c #16A765",
"=X c #17B863",
"-X c #0CB664",
";X c #2BAD66",
":X c #08C457",
">X c #12C559",
",X c #08C550",
"<X c #17C363",
"1X c #0CCC69",
"2X c #21C169",
"3X c #52A06E",
"4X c #BB8727",
"5X c #B88634",
"6X c #B29133",
"7X c #BC801E",
"8X c #D0A537",
"9X c #C08937",
"0X c #B7845A",
"qX c #AC8864",
"wX c #B68569",
"eX c #BA8670",
"rX c #D3956C",
"tX c #CF926A",
"yX c #CCAB7A",
"uX c #D4A97C",
"iX c #D9A87C",
"pX c #D3B47B",
"aX c #D4A34D",
"sX c #557782",
"dX c #BA7F91",
"fX c #D77D8A",
"gX c #5D868A",
"hX c #719090",
"jX c #75BD94",
"kX c #49AF80",
"lX c #67CC90",
"zX c #5ECD8B",
"xX c #818F98",
"cX c #AD8D92",
"vX c #B6A297",
"bX c #8999A3",
"nX c #AD9DA5",
"mX c #8FA7AD",
"MX c #AEB0B7",
"NX c #84AE9A",
"BX c #CDAB82",
"VX c #D3A584",
"CX c #DBA583",
"ZX c #D4AB84",
"AX c #DBAA83",
"SX c #D6A88A",
"DX c #D3B183",
"FX c #E5B78F",
"GX c #DA8C94",
"HX c #A3D4BA",
"JX c #A4DFB6",
"KX c #A6B8C2",
"LX c #B4CFCA",
"PX c #A8E0C2",
"IX c #ECF7EE",
"UX c #CEEAD6",
/* pixels */
"j.z.l x M  .j x B z m | V X.o.o.z } l l l ; = 5 [ l k g l l 3 & - - l l [ c x [ { x [ ......B B ..x j 4 h x v H O.| V 8 c y I P ",
"rXrXh ..X. . . .B  .[  .&...c [ x x g l g t h : g 3 - ; h g l ; = ; g r l j [ [ l x x x V x B o.o.j g g j B c m n c z v i j L.S.",
"uXAXz j M o.[ o.o.x o.X. .B B k j j u l l l g u ; N Z W N i & $ = & $ & ; g { l g g l j x l x  .x j k g l j g h : ; r n z t wXD.",
"VXAX; j j 3 g j V C C j z c k y h : h 3 5 h ; t =.2.w.w.e.>.j $ = - $ % & = z { g g t l g l l x l l h h 5 l h m v < b m 8 = K.T.",
"VXuX! y.q.=.-.! -.2.2.;.j & H H h ; k j C ! ~ 5.~.8.3.e.>.:.; % $ & $ $ 3 3 l h k h g t g g l [ z l g g g g x m h p a % , % K.D.",
"uXpX}.'.(.).{.`.].8.3.3.-.r X H t 4 ; W [.{..X'.{.9.A S g ; $ - 7 0 9   = 3 g g ; g g g h g z c x j g l c x j j g : $ r N W D.F.",
"CXpX/.^.!.(.].).].3.3.&XHXhXK $ & * . d u.9.8.q.t.~ . # & & r = 7 w F F G : 3 ; ; h g g g 4 3 l c [ B c [  .x l h 6 N r.[.].0XC.",
"BXDX{._._.'.0.q.0.3.p.LXIXUXLX% & r S r . . $ X . > 1 1 2 2 > - ; o @ T F 1 4 5 h h ; ; 3 ; = ; 3 x j g 3 l [ l g - s 4.oXoX0XA.",
"AXFXgXd S A c &.3.e.&.1.LXMX<.# & y.2X.X~ < k i l & = = < 0 G h < ; ; 4 7 7 > 2 1 > < 8 5 = $ ; ; 5 g g h 7 G w w t r f 7.^.qXS.",
"ZXFXNXQ %.M W 3.2.3.t.5.! .   % 9 W E 7.4.2.4.3.2.%.A i H T T 2 & y , - $ A 5.) ~ O % < $ $ $ = = ; ; 3 1 U U Y J m # X n f T.R.",
"c.Z.~.*XoX}.q./.0.2.-.2.! =.7.( 9.E X i e.3.3.3.3.w.r.*.X o o < u.[.W =.! 4.{.[.}.d # p N N j $ & ; $ & $ 2 2 2 9 h - > s i k.k.",
"c.b.oX,X,X:X+X%XOX~ ~ 2.2.].-X:X>X=X~ X =.2.2.2.~.~.{.^.q.( d X Q q.4.6.4.4.t.E M r O.r.w.3.e.Z & : 4 ; = 3 ; : 3 = t Q -.w.x.k.",
"AXZX/.<X@X$X*X@X+X_._.).q.0.].oXoX.X~.9.) 0.~.*XOXXXXX$X).^.~ r . %.3XHXPXp.W t 3 k ~ 8.3.5.r.O.} 5 3 g 3 = $ & = $ Q 7.0.^.wXT.",
"uXFXE ( 7.f f _.`././.|.[.y.5.8.}.jX3X)._.^.@X#X$X#X:X$X$X'.p.d # # a.LXIXf.& j u u.|.+X{.~ %.x x z v g g l ; & = $ i ( 8.q.wXT.",
"ZXpXOX~ # = . ~ q.lXJXPXkX5.E  XHXUXPX}.(.)..X+X.X$XoX_.).8.W X & u d ~ q.0.^./.q.@X:X1X*Xd t z y J T H h g 3 - = : % d -.6.qXwX",
"SXpX=X7.# 5 3 - *.LXUXJXOX{.u.u.PXIXIX;XoX+X+X$X^ O > a o 1 > % q.OX$X+X%X(.!.).!..Xu._ ~ 1 H z a K F a : = - = ; = - r A d D.R.",
"CXyX!   * g z & 5.[.zXzX@X@X=X)  XlXzXXXXX@X+X#XoXd ~ u.) ~ o - q.*XoXoX+X`.).).{.7.F U T S V 7 v m b a % X = ; ; $ $ q q 9 D.Z.",
"pXyXd ~ ~.[.^.) 8.9.].`.XX$X%XoX(.!.`.#X:X@X@X@X@X/.=X>X,XOX~ % % s u M W =.;.>.%.u y m @.O.j 3 : * * a p > $ - ; $ < D J H D.C.",
"SXiX}.]._.!./.{._.~ 2.$X,X,XXX,X%X'.{.[.q./._.oX'.%X:XXX$X=X7.2 G w 0 , = 3 v [ h h 3 8 8 8 - ; - $ & % , v % - $ $ : < 1 - D.F.",
"SXuX].'.).~ ! 6._.W s {.<X>X>X>XOX{.6.f . . d 9.0.6.! ! ~ E * & X s G < ; ; : h * b < 6 , - g x = $ ; $ - v : - 4 ; & $ * : J.C.",
"rXaX$X.X.Xu.;.r A h 9 N *.Q Q W Q -.=.%.&.%.Z & r . $ # # # 2 p > < 7 7 : $ < 1 J F T 9 & h g l 3 = = ; ; 4 : - = & ; & & 5 A.S.",
"l.z.$X=X$Xf % ; < 3 3 # # - : %.>.4.3.w.3.t.2.g 8 w 8 - : G w a 1 - 6 7 : % b 2 F T T 0 < - - 3 ; 3 ; h ; ; = = = $ = $ : % I P ",
"tXtXf Q E : = : , < r $ % ; u r.w.w.3.3.r.e.=.4 = ; % 0 H b * $ $ $ & : - $ 1 * % & $ - < $ = - & : g k 3 = = = % - = $ : v F.S.",
"VXVXh 8 , 4 6 X & 9 1 7 , 2 & : S W ! =.Z s i = = ; % a y : < - > * % % < 2 1 : = = = $ : 1 > * : : : 4 ; = = - $ * $ : t j wXD.",
"SXiXg z z : 1 2 < < $ = : : * X & $ , % = = = 5 5 5 8 6 & = - , * 1 2 < : q , 5 = = $ > $ % - : , - : > , # & ; - & ; 4 g c wXD.",
"VXuXB x l t ; 5 , < 6 % $ 2 0 H 1 < > 2 % & = 5 & $ p : & & = & = = # # 7 > & H bXmX@.  : : . $ % $ - : < - & ; g t 3 ; j c J.D.",
"DXiXx t z h x [ h h m p : m 7 < 1 % > J J 1 & & & & : & : ; * , < 7 S dXs.H s.cXMXhXm p a a G 2 % % # % : - ; h l t j y z n D.A.",
"ZXiXn v 7 w g 3 x j k v m v j l 7 $ > w J > $ ; ; = = - - 3 @.sXG.U.B.U.U.m.V.h.m O.$ $ % % < G : : & & - ; ; g g g g h k k J.C.",
"VXAXm e e D v v 5 g t v 7 h j l | z g ; & & : t : : ; ; = # y d.Y.Y.E.N.GXGXG.a.$ # = = $ = $ $ : : : ; 3 ; g g l u g h k j J.C.",
"SXDX1 U U 1 j p v g g v b t l l l {  .B x k g g l g l r > T R B.M.W.vXdXP.gXd.5 ; = ; = ; = = - < h t g z c x l 3 g g h t t D.A.",
"iXiXG Y U r l y v j j k v z j x  .B x o.X. .x x l l g g h.W.n.M.dXnXmXi.z = $.8 ; t ; = ; - ; = ; ; j j { { [ [ z x l h j z K.R.",
"c.Z.q Y U u 3 h g j B v m O.x x l j x [ o.o.j k i t t r hXMXdXcXbXd.&Xi.3 - = = $ $ $ : & ; ; ; ; g l x  .{ [  .[ x  .x c ; x.k.",
"c.b.L Y 1 i l h t j i l K x.` / K ` / j l @.k j t t u l | 1.<.<.| g O.g 3 ; & $ ; & $ ; = ; ; 5 & t x l l c x  .&.>.*.! %.N B.j.",
"CXuX6 L = = 3 4 5 [ g x X x.9X5X9X4Xb.v.' v.` r 3 [ u g | g g ; [ z [ 3 = - - $ $ * X $ - % $ = , $ ; g g g j :.e.e.e.t.~.0.qXW.",
"BXSXx h 3 4 l l } +.c } j D @ ' 5X4X7X4X8X8X8X6X/ z [ z | l [ { [ [ g ; % = & & - = $ 5 = & & & $ & ; g h 3 l &.-.8.7.y.`.(.qXT.",
"VXuXg g } z x j j t z { B t 3 K b.5X7X4X4X6X8X8X6XH l g g 3 z x j t : . % $ & ; $ & $ = - X . - & t t g j z l l A *X].W 7.( tX0X",
"AXVX= = = = 3 & r j ; x ..t k b @ @ s.v.b.5X4X4X5XJ y t [ g l [ z t v $ ; & - - $ & ; = % $ ; 3 3 g j g g 3 j g k q.2.g : t K.A.",
"uXuX= % : & = h j g i } +.c [ x c z u @ z.] K ` f h u j 5 - 3 [ x l 3 l z g g : - = 3 = t E ;.W h 3 y t h B &.&.A O p $.l g J.Z.",
"AXuX$ $ g g l g l l M j  ...z x  .[ x K ` @.} { } [ t ; #.p.N p m m V l l z g t : y t u 9.$X<XOXj t ; r A ;.w.e.e.;.C l x B L.F.",
"VXuXg M j j B x B } B B o.o.B [ B [  .X. . . .[ B l g ; hXLXP.M.I.G.g.Z j x z j g g l 4 N ! ! W t N *.-.t.t.3.3.e.e.N S M V J.C.",
"ZXiXB B o.....o.o.X.o. .......C  . .X.B  . . .x } d.T k.I.fXQ.Y.N.V.nXO.B B x [ x x x x l l g g W ^.(._.).(./.=.&.B z x B M J.A.",
"tXtXC X.o.j o.B x o.o.c x z B B X.o.x x j [ x ; a xXE.Y.Y.Y.U.N.I.cXhX*. .X.o.x l z j l g 3 h h ;.}.`.'._.{.y.Z 4 g ; { x X.J.C.",
"j.x.....x B l { ..x x j g g l x o.j k j x g ; @.n.E.Y.fXGXM.I.L.V.g.B x { x j g h 3 - = = $ = = u ~ 6.3.w.~ i v z x c x x k I P ",
"tXrX .B  .x ..x x c x x g g g j ..B j g g i m xXfXM.N.fXLXW.G.nXcXa.; c l g g l h ; $ - - = $ $ ; : g [ [ z p h g c 5 z h k G.F.",
"AXAX .x x B [ B B x x c x x x c B B ,.:.O.@.mXKXnXvXV.cXmXg.dXmXhX{ g j g g h t ; = $ = % - & & - 3 l } } y y a m 6 b m m S tXJ.",
"ZXiXc c x ..x x  .x x x x [ x x l g mXKXhX<.#.#.#.#.f.sX1.& t p.p.[ l g h g ; = & & & - $ = ; ; 4 3 g ; t r > G v h i &.2.;.0XD.",
"yXyXB  .j B  .x j V x x j x x z 3 j d.MXf.  # . &   ,.,.# 3 z g l { 5 * ; = ; = $ = $ & = = = ; ; h p a > 1 H * % ; Z w.3.3.qXR.",
"CXCX[ x  .B ..c B c l g j x x l l 3 t @.6 & = = = - # X & $ - ; 3 3 ; & & & - ; - $ = = ; ; 4 4 b 1 6 7 b 6 = $ ; $ y %.e.2.J.C.",
"BXVX .x B B [ [ [ [ g j B B [ [ [ { z 3 ; & - 3 $ - & ; ; ; $ $ - = 4 ; = = ; $ & ; ; ; : ; ; : = ; ; ; ; ; 3 ; 3 ; X $ y S J.C.",
"uXAX[  .[ x z M g l } } z l } [ { 3 3 ; ; : = = = = = = = = = ; = * r r : $ $ 8 g : h h ; $ $ $ = = - = = ; ; ; 3 ; $ $ & u J.C.",
"iXuXV | } [ Z 6.9.! j 3 y y j x ; & = ; & & ; : 3 - = 5 $ = = = i 6.~.!.q.N & h ; ; ; h & & ; $ - = = = = ; ; ; = ; $ : t u J.F.",
"SXyXB j [ z x w.[.;.i = 4 4 : k * ; = $ & & & = = $ ; & $ & = $ s [.'._./.C : ; ; ; 4 ; $ = - $ $ = ; = & - = = ; ; : ; ; k K.R.",
"c.Z.j W y.( k { o.z =.w.4.3.0.3.r & ; - = & $ - & & & & ; = ; ; ; t d ^ c 3 5 g ; h h ; = % $ $ = - = $ - ; ; $ = ; ; h g y x.k.",
"c.b.z 5.*XOX%.{ } =.oX:X,X@X>X$X1.r & = = = $ = - - - - - - # $ = $ = - # = 3 ; ; g ; & = ; = : * & : $ % $ $ $ ; ; & h z k x.j.",
"SXCX{ B X.M Z W d ! _.%XOX$X@XoXr.M j z g 3 ; & $ = # $ # i i d * ; = = ; & - - = ; = & = $ & $ = $ ; & & $ - : $ : y z  .V L.W.",
"yXiX[ { B -.y._.).^.^.7.W 3.].2.2.;. .z z j z ; r i y i u 6.}._.;.$ - - $ & & - : : = = & ; = $ $ & $ % $ & & $ - ; h l  .M wXD.",
"uXuXx x j r.}.`./.{.t.-.j c *.;.:.C u g 4 z g &.-.e.r.r.3.0.t.9.S & & = = ; = ; ; ; : ; ; : : = ; ; = = = $ & & ; r j l x B wXD.",
"CXiXl l h u Z E W W W  .z z j t t g i r u d W 7.3.3.e.3.3.4.2.d t ; y 4 ; g g ; : ; ; & & = ; ; g : ; = $ = & ; ; g g l c j J.A.",
"BXZXl g z 3 3 4 : x [ z l x x z g g 3 %.y.^.^.).{.3.2.e.e.>.*.y t g g g j x c g h h g 3 3 ; ; ; ; ; ; : ; = ; $ ; t g j c x J.C.",
"yXuXr & ; j l g x { c g 3 g l j j g l &.[._._.).[.2.=.;.%.C j l j g g x { x x g g g h j h 3 3 ; = & & : : ; & ; : ; h g h l K.C.",
"VXiX% % % & ; g c ; & - : t g 4 t l } B &.! -.-.W M j B B x x  .j V x ..{ x B x g g t g g h h g ; = & = ; = ; ; ; ; 3 t g j J.C.",
"yXAX= $ # % - g c g = $ $ ; g l i g z x j x x [ l c [ [ ....{ {  .X.V [ x x B B j g g g g g g g h = $ = $ = ; : ; r : g t g J.A.",
"tXtXh ; 3 = = & g c k & = ; ; g k t j { [ x x ..k x x  .B B x V B B x c x j z j g j g g i g g g ; & $ ; = ; ; ; = t ; & * y F.V.",
"l.z.: t l g ; * ; c c ; 4 : & h k z k V  .X.B V C  .....V &.C B X.V c V z x k k k j k j h j k k : y : : : 4 h g g ; t : ; y I P "
};
